<svg
  xmlns="http://www.w3.org/2000/svg"
  width="24"
  height="24"
  viewBox="0 0 24 24"
  fill="none"
  stroke="currentColor"
  stroke-width="1"
>
  <path d="M13.091 13.745c.164.164.491.327 1.036.491.218.109.545.218.818.327s.6 0 .709-.273c.109-.273 0-.6-.273-.709-.327-.109-.6-.273-.873-.327-.273-.109-.6-.218-.655-.273-.382-.382-.327-.545.382-1.527.6-.873 1.418-2.018 1.418-3.764 0-2.509-1.745-5.073-4.636-5.073S6.381 5.235 6.381 7.69c0 1.745.818 2.945 1.418 3.764.709.982.764 1.145.382 1.527-.055.055-.382.164-.655.273-1.855.709-6.164 2.345-6.164 7.691 0 .327.273.545.545.545h12.436c.327 0 .545-.273.545-.545s-.273-.545-.545-.545H2.561c.273-4.145 3.709-5.455 5.4-6.109.545-.218.818-.327 1.036-.491 1.091-1.091.382-2.127-.218-3-.6-.818-1.255-1.691-1.255-3.109 0-1.964 1.309-3.982 3.545-3.982 2.182 0 3.491 2.018 3.491 3.982 0 1.418-.655 2.291-1.255 3.109-.655.818-1.364 1.8-.218 2.945z" />
  <path d="M21.982 17.345h-2.4v-2.4c0-.327-.273-.545-.545-.545s-.545.273-.545.545v2.4h-2.4a.546.546 0 0 0-.545.545c0 .327.273.545.545.545h2.4v2.4c0 .327.273.545.545.545s.545-.273.545-.545v-2.4h2.4c.327 0 .545-.273.545-.545s-.218-.545-.545-.545z" />
</svg>
