<svg
  xmlns="http://www.w3.org/2000/svg"
  width="24"
  height="24"
  viewBox="0 0 24 24"
  fill="none"
  stroke="currentColor"
  stroke-width="1"
>
  <path d="M7.036 12.109h9.709c.327 0 .545-.218.545-.545V9.273c.109-.327-.218-.545-.436-.545H7.036c-.218 0-.545.218-.545.545v2.291c0 .327.327.545.545.545zm.546-2.291h8.727v1.2H7.582v-1.2z" />
  <path d="M22.418 1.091H1.473c-.327 0-.545.218-.545.545v4.582c0 .327.218.545.545.545h.982v15.6c0 .327.218.545.545.545h18c.327 0 .545-.218.545-.545v-15.6h.982c.327 0 .545-.218.545-.545V1.636c-.109-.327-.327-.545-.655-.545zm-2.073 20.727h-16.8V6.763h16.909v15.055h-.109zm1.528-16.145H2.018V2.182h19.964v3.491h-.109z" />
</svg>
