<svg
  xmlns="http://www.w3.org/2000/svg"
  width="24"
  height="24"
  viewBox="0 0 24 24"
  fill="none"
  stroke="currentColor"
  stroke-width="1"
>
  <path d="M12 22.527c5.836 0 10.527-4.691 10.527-10.527S17.836 1.473 12 1.473 1.473 6.164 1.473 12A10.499 10.499 0 0 0 12 22.527zM21.436 12c0 2.4-.927 4.582-2.4 6.273L5.727 4.964C7.418 3.491 9.6 2.564 12 2.564c5.182 0 9.436 4.255 9.436 9.436zM4.964 5.727l13.309 13.309c-1.691 1.473-3.873 2.4-6.273 2.4-5.182 0-9.436-4.255-9.436-9.436 0-2.4.927-4.582 2.4-6.273z" />
</svg>
