<svg
  xmlns="http://www.w3.org/2000/svg"
  width="24"
  height="24"
  viewBox="0 0 24 24"
  fill="none"
  stroke="currentColor"
  stroke-width="1"
>
  <path d="M13.855 22.964h-3.764a.546.546 0 0 1-.545-.545v-2.127c-.6-.164-1.145-.436-1.691-.709L6.328 21.11a.59.59 0 0 1-.382.164.496.496 0 0 1-.382-.164l-2.673-2.673a.593.593 0 0 1 0-.818l1.582-1.582a10.246 10.246 0 0 1-.655-1.636H1.582a.546.546 0 0 1-.545-.545v-3.764c0-.327.273-.545.545-.545h2.4a6.06 6.06 0 0 1 .655-1.473L2.946 6.383a.593.593 0 0 1 0-.818l2.673-2.673a.593.593 0 0 1 .818 0l1.745 1.745c.436-.218.927-.436 1.418-.6V1.582c0-.327.273-.545.545-.545h3.764c.327 0 .545.273.545.545v2.509c.491.164.982.327 1.418.6l1.745-1.745c.164-.164.273-.218.436-.218.164 0 .273.055.382.164l2.673 2.673c.218.218.218.6 0 .818l-1.691 1.691c.273.491.491.982.655 1.473h2.4c.327 0 .545.273.545.545v3.764a.546.546 0 0 1-.545.545h-2.291a10.246 10.246 0 0 1-.655 1.636l1.582 1.582c.218.218.218.6 0 .818l-2.673 2.673a.59.59 0 0 1-.382.164.496.496 0 0 1-.382-.164l-1.527-1.527c-.545.273-1.091.545-1.691.709v2.127c0 .327-.273.545-.6.545zm-3.164-1.091h2.618v-2.018c0-.273.164-.436.436-.545.327-.109.709-.218 1.036-.327s.655-.273.927-.491c.273-.164.6-.273.873 0l1.418 1.418 1.855-1.855-1.473-1.473c-.273-.273-.164-.545 0-.818.164-.327.327-.655.436-.982.164-.436.218-1.473.873-1.473h2.182v-2.618h-2.236c-.6 0-.709-.982-.873-1.418-.109-.327-.273-.6-.491-.927-.164-.273-.218-.545 0-.818l1.636-1.636-1.855-1.855-1.691 1.745c-.436.436-1.255-.218-1.691-.382s-1.364-.218-1.364-.873v-2.4h-2.618v2.4c0 .655-.927.655-1.364.873-.436.164-1.2.873-1.691.382L5.943 4.091 4.088 5.946l1.636 1.636c.273.273.164.545 0 .818s-.327.6-.491.927c-.164.436-.273 1.364-.873 1.364H2.124v2.618h2.127c.655 0 .709 1.036.873 1.473.109.327.273.655.436.982.164.273.218.545 0 .818l-1.473 1.473 1.855 1.855 1.418-1.418c.273-.273.545-.164.818 0 .327.164.655.382.982.491l.982.327c.273.109.491.273.491.545v2.018zM12 16.909c-1.964 0-3.764-1.255-4.418-3.109S7.473 9.818 9 8.564a4.782 4.782 0 0 1 5.4-.436c1.691 1.036 2.618 3.055 2.236 4.964-.436 2.182-2.4 3.818-4.636 3.818zm0-8.291c-1.473 0-2.891.982-3.382 2.4s-.055 3 1.091 3.982c1.145.927 2.836 1.091 4.091.327 1.309-.764 1.964-2.291 1.691-3.818A3.56 3.56 0 0 0 12 8.618z" />
</svg>
