<svg
  xmlns="http://www.w3.org/2000/svg"
  width="24"
  height="24"
  viewBox="0 0 24 24"
  fill="none"
  stroke="currentColor"
  stroke-width="1"
>
  <path d="M17.945 12.982a.546.546 0 0 0-.545.545v9.327H2.345V1.145h15v2.291c0 .709 1.145.709 1.145 0V.6a.546.546 0 0 0-.545-.545H1.8A.546.546 0 0 0 1.255.6v22.855c0 .327.273.545.545.545h16.145a.546.546 0 0 0 .545-.545v-9.927a.546.546 0 0 0-.545-.545z" />
  <path d="M22.582 5.345l-1.909-1.909a.593.593 0 0 0-.818 0L9.873 13.472c-.055.055-.109.109-.109.164l-1.691 3.6c-.218.436.273.982.764.764l3.491-1.582c.055-.055.109-.055.164-.109l10.2-10.145c.109-.218.109-.6-.109-.818zM11.673 15.436l-1.964.927.982-2.127 9.6-9.6 1.145 1.145-9.764 9.655z" />
</svg>
