<svg
  xmlns="http://www.w3.org/2000/svg"
  width="24"
  height="24"
  viewBox="0 0 24 24"
  fill="none"
  stroke="currentColor"
  stroke-width="1"
>
  <path d="M20.291 14.564c-.109-.055-.273-.164-.327-.164-.218-.218-.273-.273.273-1.091.491-.655 1.145-1.582 1.145-3 0-2.018-1.418-4.091-3.764-4.091s-3.709 2.073-3.709 4.091c0 1.418.655 2.345 1.145 3 .545.818.545.818.327 1.036l-.873.436-.109.055c-.982-.873-2.073-1.364-2.727-1.691-.218-.109-.436-.218-.491-.218-.382-.382-.327-.545.327-1.527.6-.818 1.418-1.964 1.418-3.709 0-2.455-1.691-5.018-4.527-5.018-2.891.055-4.582 2.618-4.582 5.073 0 1.745.818 2.891 1.418 3.709.709.982.709 1.145.382 1.527-.055.055-.327.164-.491.273-1.582.6-5.127 2.182-5.127 7.473 0 .327.218.545.545.545h22.909c.327 0 .545-.218.545-.545 0-4.309-2.618-5.618-3.709-6.164zm-19.2 5.618c.218-4.145 3.055-5.4 4.418-6 .382-.164.655-.273.818-.491 1.091-1.091.382-2.073-.218-2.945-.545-.764-1.2-1.691-1.2-3.055 0-1.909 1.309-3.873 3.491-3.873 2.127 0 3.436 1.964 3.436 3.927 0 1.364-.655 2.291-1.2 3.055-.6.873-1.309 1.855-.218 2.945.164.164.436.273.818.436 1.364.6 4.2 1.855 4.418 6H1.09zm15.6 0c-.109-2.018-.709-3.436-1.527-4.473.6-.273.818-.382.982-.545.927-.927.327-1.8-.164-2.509-.436-.6-.927-1.309-.927-2.4 0-1.473.982-3 2.673-3 1.636 0 2.618 1.527 2.618 3 0 1.091-.491 1.745-.927 2.4-.491.709-1.091 1.527-.164 2.509.164.164.327.218.6.382.982.491 2.891 1.418 3.109 4.636h-6.273z" />
</svg>
