<svg
  xmlns="http://www.w3.org/2000/svg"
  width="24"
  height="24"
  viewBox="0 0 24 24"
  fill="none"
  stroke="currentColor"
  stroke-width="1"
>
  <path d="M12 2.564c5.182 0 9.436 4.255 9.436 9.436S17.181 21.436 12 21.436 2.564 17.181 2.564 12 6.819 2.564 12 2.564zm0-1.091C6.164 1.473 1.473 6.164 1.473 12S6.164 22.527 12 22.527 22.527 17.836 22.527 12 17.836 1.473 12 1.473z" />
  <path d="M17.618 12.545H6.382c-.327 0-.545-.218-.545-.545s.218-.545.545-.545h11.236c.327 0 .545.218.545.545s-.273.545-.545.545z" />
</svg>
