<svg
  xmlns="http://www.w3.org/2000/svg"
  width="24"
  height="24"
  viewBox="0 0 24 24"
  fill="none"
  stroke="currentColor"
  stroke-width="1"
>
  <path d="M20.727 6.436c0-.109 0-.164-.055-.273-.055-.055-.055-.109-.109-.164L14.672.163a.496.496 0 0 0-.382-.164H3.817a.546.546 0 0 0-.545.545v22.855c0 .327.273.545.545.545h16.364a.546.546 0 0 0 .545-.545V6.435c0 .055 0 0 0 0zm-5.891-4.527l3.982 3.982h-3.982V1.909zM4.364 22.855V1.146h9.382v5.345c0 .327.273.545.545.545h5.345v15.818H4.363z" />
</svg>
