<svg
  xmlns="http://www.w3.org/2000/svg"
  width="24"
  height="24"
  viewBox="0 0 24 24"
  fill="none"
  stroke="currentColor"
  stroke-width="1"
>
  <path d="M7.964 15.055l-.818 1.8 1.8-.818 7.909-7.909-.982-.982z" />
  <path d="M12 0C5.345 0 0 5.345 0 12s5.345 12 12 12 12-5.345 12-12S18.655 0 12 0zm5.345 8.618l-7.909 7.909c-.055.055-.164.055-.218.164l-1.745.873c-.055.055-.218.055-.273.055-.218 0-.327-.055-.491-.218a.676.676 0 0 1-.164-.764l.873-1.855c0-.055.055-.164.164-.218l7.909-7.909c.164-.164.273-.218.491-.218.218 0 .327.055.491.218l.982.982a.701.701 0 0 1-.109.982z" />
</svg>
