<svg
  xmlns="http://www.w3.org/2000/svg"
  width="24"
  height="24"
  viewBox="0 0 24 24"
  fill="none"
  stroke="currentColor"
  stroke-width="1"
>
  <path d="M18.709 2.673l1.582 1.582L7.582 17.019l-2.836 1.364 1.255-2.945L18.71 2.674zm0-1.091c-.327 0-.545.109-.818.327L5.182 14.618c-.109.109-.218.218-.218.327L3.6 17.89c-.218.436-.109.927.218 1.255.218.218.436.327.818.327.109 0 .327 0 .436-.109l2.836-1.364c.109 0 .218-.109.327-.218L21.108 5.072a1.12 1.12 0 0 0 0-1.582l-1.582-1.582c-.164-.218-.491-.327-.818-.327z" />
  <path d="M18.709 22.418H3.164c-.327 0-.545-.218-.545-.545s.218-.545.545-.545h15.545c.327 0 .545.218.545.545s-.327.545-.545.545z" />
</svg>
