<svg
  xmlns="http://www.w3.org/2000/svg"
  width="24"
  height="24"
  viewBox="0 0 24 24"
  fill="none"
  stroke="currentColor"
  stroke-width="1"
>
  <path d="M19.855 4.691h-4.2V1.582a.546.546 0 0 0-.545-.545H8.837a.546.546 0 0 0-.545.545v3.109H4.147c-.327 0-.545.273-.545.545s.273.545.545.545h1.255v5.127c0 .327.273.545.545.545a.496.496 0 0 0 .382-.164l2.618-2.618 2.618 2.564c.218.218.6.218.818 0l2.618-2.564 2.618 2.564c.109.109.327.164.491.164a.851.851 0 0 0 .436-.327c.055-.055.055-.164.055-.273V5.726h1.255c.327 0 .545-.273.545-.545s-.218-.491-.545-.491zM9.382 2.127h5.182v2.564H9.382V2.127zm8.073 7.418l-2.018-2.018a.593.593 0 0 0-.818 0l-2.618 2.564-2.618-2.564a.59.59 0 0 0-.382-.164.496.496 0 0 0-.382.164L6.546 9.545V5.836h10.909v3.709z" />
  <path d="M8.4 17.073a.496.496 0 0 0 .382-.164l2.4-2.4c.109-.109.164-.273.164-.382s-.055-.273-.164-.382l-2.4-2.4a.593.593 0 0 0-.818 0l-2.4 2.4a.593.593 0 0 0 0 .818l2.4 2.4c.109.055.273.109.436.109zm0-4.582l1.636 1.636L8.4 15.763l-1.636-1.636L8.4 12.491z" />
  <path d="M14.782 16.091c.109.109.273.164.382.164s.273-.055.382-.164l2.4-2.4c.109-.109.164-.273.164-.382s-.055-.273-.164-.382l-2.4-2.4a.593.593 0 0 0-.818 0l-2.4 2.4c-.109.109-.164.273-.164.382s.055.273.164.382l2.455 2.4zm.382-4.418l1.636 1.636-1.636 1.636-1.636-1.636 1.636-1.636z" />
  <path d="M14.673 17.618l-1.909-1.909a.593.593 0 0 0-.818 0l-1.909 1.909c-.109.109-.218.218-.218.382s.055.273.164.382l1.909 1.909c.109.109.273.164.382.164s.273-.055.382-.164l1.909-1.909c.327-.218.327-.545.109-.764zm-2.346 1.527L11.182 18l1.145-1.145L13.472 18l-1.145 1.145z" />
  <path d="M17.509 18.709a.593.593 0 0 0-.818 0l-1.418 1.418a.593.593 0 0 0 0 .818l1.418 1.418c.109.109.273.164.382.164s.273-.055.382-.164l1.418-1.418a.593.593 0 0 0 0-.818l-1.364-1.418zm-.382 2.4l-.6-.6.6-.6.6.6-.6.6z" />
  <path d="M8.836 19.145a.593.593 0 0 0-.818 0L6.6 20.563c-.109.109-.164.273-.164.382s.055.273.164.382l1.418 1.418c.109.109.273.164.382.164s.273-.055.382-.164l1.418-1.418a.593.593 0 0 0 0-.818l-1.364-1.364zm-.381 2.4l-.6-.6.6-.6.6.6-.6.6z" />
</svg>
