<svg
  xmlns="http://www.w3.org/2000/svg"
  width="24"
  height="24"
  viewBox="0 0 24 24"
  fill="none"
  stroke="currentColor"
  stroke-width="1"
>
  <path d="M9.035 17.605l-.557.557q-.111.111-.256.111t-.256-.111l-5.193-5.193q-.111-.111-.111-.256t.111-.256l5.193-5.193q.111-.111.256-.111t.256.111l.557.557q.111.111.111.256t-.111.256l-4.379 4.379 4.379 4.379q.111.111.111.256t-.111.256zm6.585-11.89l-4.156 14.386q-.045.145-.173.217t-.262.028l-.691-.189q-.145-.045-.217-.173t-.028-.273l4.156-14.386q.045-.145.173-.217t.262-.028l.691.189q.145.045.217.173t.028.273zm7.321 7.254l-5.193 5.193q-.111.111-.256.111t-.256-.111l-.557-.557q-.111-.111-.111-.256t.111-.256l4.379-4.379-4.379-4.379q-.111-.111-.111-.256t.111-.256l.557-.557q.111-.111.256-.111t.256.111l5.193 5.193q.111.111.111.256t-.111.256z" />
</svg>
