<svg
  xmlns="http://www.w3.org/2000/svg"
  width="24"
  height="24"
  viewBox="0 0 24 24"
  fill="none"
  stroke="currentColor"
  stroke-width="1"
>
  <path d="M22.036 22.473H1.963c-.709 0-.545-.927-.545-1.418a18.41 18.41 0 0 1 .273-1.691A7.63 7.63 0 0 1 3 16.8c.982-1.255 2.291-2.182 3.764-2.836.327-.164.6-.273.927-.382.382-.164.873-.273 1.2-.491.709-.709-.109-1.473-.545-2.073-.6-.818-1.091-1.745-1.309-2.782-.382-1.909.273-4.145 1.745-5.509 1.527-1.418 3.927-1.636 5.727-.491 1.691 1.036 2.564 3.109 2.564 5.073 0 1.255-.436 2.4-1.145 3.436-.327.491-.709.927-.927 1.418-.218.382-.164.655.164.982.327.218.709.273 1.036.436l.818.327c.655.273 1.309.6 1.909 1.036 1.473.982 2.673 2.4 3.218 4.091.164.545.327 1.145.382 1.745.055.491.273 1.691-.491 1.691zM2.564 21.327h18.873c-.109-1.691-.764-3.327-1.964-4.527-.927-.927-2.073-1.527-3.273-2.018-.6-.218-1.309-.382-1.8-.764-.818-.655-.818-1.691-.327-2.564.436-.764 1.036-1.418 1.418-2.236a4.829 4.829 0 0 0 .382-2.891C15.6 4.636 14.4 3 12.6 2.727c-1.855-.273-3.436.764-4.091 2.455-.327.818-.436 1.8-.327 2.673.164.982.6 1.8 1.2 2.564.491.655 1.145 1.418 1.036 2.291-.109 1.036-.982 1.473-1.855 1.745-2.618.982-5.018 2.509-5.727 5.4-.164.491-.218.982-.273 1.473z" />
</svg>
