<svg
  xmlns="http://www.w3.org/2000/svg"
  width="24"
  height="24"
  viewBox="0 0 24 24"
  fill="none"
  stroke="currentColor"
  stroke-width="1"
>
  <path d="M22.527 12.982a.546.546 0 0 0-.545.545v8.236c0 .655-.436 1.091-1.091 1.091H3.109c-.655 0-1.091-.436-1.091-1.091v-8.236c0-.709-1.145-.709-1.145 0v8.236c0 1.255.927 2.236 2.236 2.236h17.782c1.255 0 2.236-.927 2.236-2.236v-8.236c0-.327-.273-.545-.6-.545z" />
  <path d="M11.618 17.127c.218.218.6.218.818 0l5.782-5.782c.491-.491-.273-1.309-.818-.818l-4.855 4.8V.6c0-.709-1.145-.709-1.145 0v14.782l-4.8-4.8c-.491-.491-1.309.273-.818.818l5.836 5.727z" />
</svg>
