<svg
  xmlns="http://www.w3.org/2000/svg"
  width="24"
  height="24"
  viewBox="0 0 24 24"
  fill="none"
  stroke="currentColor"
  stroke-width="1"
>
  <path d="M19.527 10.309l-.764.327-.982-2.236a3.844 3.844 0 0 0-4.691-2.073 4.633 4.633 0 0 0-1.855-2.673A4.355 4.355 0 0 0 8.78 2.89a4.551 4.551 0 0 0-3.709 1.964c-.927 1.527-.982 3.327-.164 4.8l-3.655 5.509c-.055.055-.055.164-.055.218l.655 2.073c.055.109.164.218.273.218l2.236-.218a.413.413 0 0 0 .218-.109l.873-1.309v-.218l-.273-1.036.927-1.418 1.036-.109a.413.413 0 0 0 .218-.109l.873-1.309c.218 0 .382.055.6.055.709 0 1.418-.164 2.073-.491 0 .055 0 .055.055.109l.982 2.236-.764.327 2.891 6.655 8.455-3.764-3-6.655zm-11.4.982a.421.421 0 0 0-.273.109l-.873 1.309-1.036.109a.413.413 0 0 0-.218.109l-1.091 1.636c-.055.055-.055.164-.055.218l.327 1.036-.709 1.091-1.855.164-.545-1.745 3.709-5.509c.055-.109.055-.218 0-.273-.818-1.309-.818-3 .055-4.255.709-1.091 1.964-1.745 3.273-1.745a3.93 3.93 0 0 1 2.182.655 4.141 4.141 0 0 1 1.691 2.564v.109c.164.982-.055 1.909-.6 2.727-.709 1.091-1.964 1.745-3.273 1.745-.273 0-.491 0-.709-.055zm3.273 0c0-.055-.055-.109-.055-.164.436-.327.873-.709 1.2-1.2.6-.873.818-1.909.709-3 1.582-.6 3.382.164 4.091 1.745l.982 2.236-5.945 2.618-.982-2.236zm.436 3.054l7.418-3.273 2.509 5.673-7.418 3.273-2.509-5.673z" />
  <path d="M10.309 5.127c-.273-.164-.545-.273-.873-.273-.545 0-.982.273-1.309.709a1.508 1.508 0 0 0 .436 2.127c.273.164.545.273.873.273.545 0 .982-.273 1.309-.709.491-.655.273-1.636-.436-2.127zm0 1.855c-.273.436-.927.6-1.418.273-.436-.327-.6-.927-.273-1.418.164-.273.491-.436.818-.436a.92.92 0 0 1 .545.164c.491.327.655.982.327 1.418z" />
</svg>
