<svg
  xmlns="http://www.w3.org/2000/svg"
  width="24"
  height="24"
  viewBox="0 0 24 24"
  fill="none"
  stroke="currentColor"
  stroke-width="1"
>
  <path d="M17.836 5.891l-.491.218-.709-1.745c-.491-1.145-1.582-1.8-2.782-1.8-.218 0-.382 0-.6.055 0 .055.055.164.055.218 0 .164.055.218.055.382.164 0 .273-.055.436-.055.927 0 1.8.491 2.182 1.473l.709 1.745-4.364 1.964-.655-1.473c-.164.164-.382.218-.6.273l.655 1.473-.491.218 2.345 5.182 6.545-2.891-2.291-5.236z" />
  <path d="M11.291.927c-.6-.382-1.145-.6-1.8-.6-1.036 0-2.127.491-2.673 1.473a3.33 3.33 0 0 0-.055 3.545L3.872 9.709l.491 1.582 1.691-.164.655-1.036-.273-.873.873-1.255.927-.055.709-1.091c.218 0 .382.055.6.055 1.036 0 2.127-.491 2.673-1.473a3.2 3.2 0 0 0-.927-4.473zm-.436 2.509c-.218.273-.491.436-.818.436-.218 0-.382-.055-.6-.164-.436-.273-.6-.927-.273-1.364.218-.273.491-.436.818-.436.218 0 .382.055.6.164.436.273.6.927.273 1.364z" />
  <path d="M11.727 21.764c.055.055.055.055.109.055s.109.055.164.055c.055 0 .109 0 .164-.055.055 0 .109-.055.109-.055l2.673-2.673c.164-.164.164-.382 0-.491-.164-.164-.382-.164-.491 0l-2.073 2.073v-5.4c0-.218-.164-.382-.382-.382s-.382.164-.382.382v5.345L9.6 18.545c-.164-.164-.382-.164-.491 0-.164.164-.164.382 0 .491l2.618 2.727z" />
  <path d="M17.782 22.909H6.218c-.218 0-.382.164-.382.382s.164.382.382.382h11.564c.218 0 .382-.164.382-.382s-.164-.382-.382-.382z" />
</svg>
