<svg
  xmlns="http://www.w3.org/2000/svg"
  width="24"
  height="24"
  viewBox="0 0 24 24"
  fill="none"
  stroke="currentColor"
  stroke-width="1"
>
  <path d="M8.384 20.182l-.003-3.15h3.162l2.336-2.337c2.505.819 5.359.264 7.353-1.723 2.816-2.818 2.816-7.389 0-10.205s-7.387-2.817-10.204.002C9.034 4.763 8.484 7.618 9.314 10.13L.663 18.778l-.006 4.571 4.573-.004v-3.16h3.154zM15.68 8.315a2.467 2.467 0 0 1 .003-3.49 2.458 2.458 0 0 1 3.49 0 2.46 2.46 0 0 1 .004 3.488 2.472 2.472 0 0 1-3.497.002z" />
</svg>
