<svg
  xmlns="http://www.w3.org/2000/svg"
  width="24"
  height="24"
  viewBox="0 0 24 24"
  fill="none"
  stroke="currentColor"
  stroke-width="1"
>
  <path d="M20.782 3.327c0-.055-.055-.164-.109-.164-.055-.055-.109-.055-.218-.055 0 0-.655.109-1.745.109a14.3 14.3 0 0 1-2.673-.273c-2.509-.491-3.873-1.636-3.927-1.691-.109-.109-.273-.109-.327 0 0 0-1.364 1.145-3.927 1.691-.873.164-1.8.273-2.673.273-1.036 0-1.691-.109-1.745-.109s-.164 0-.218.055v.164c-2.345 16.091 8.618 19.364 8.727 19.418h.11c.109-.055 2.836-.818 5.291-3.655 2.291-2.564 4.691-7.364 3.436-15.764zM12 22.2c-.927-.327-10.364-3.818-8.291-18.545.327.055.818.109 1.527.109.927 0 1.855-.109 2.782-.273C10.2 3.055 11.509 2.182 12 1.855c.436.327 1.8 1.2 3.982 1.636.927.164 1.855.273 2.782.273.709 0 1.255-.055 1.527-.109C22.364 18.491 13.036 21.873 12 22.2z" />
  <path d="M15.327 9.982h-.491V8.509c0-1.582-1.255-2.836-2.836-2.836S9.164 6.928 9.164 8.509v1.473h-.545c-.164 0-.273.109-.273.273V15.6c0 .164.109.273.273.273h6.709c.164 0 .273-.109.273-.273v-5.345c0-.164-.109-.273-.273-.273zM9.709 8.509c0-1.255 1.036-2.291 2.291-2.291s2.291 1.036 2.291 2.291v1.473H9.709V8.509zm5.346 6.818H8.946v-4.8h6.164v4.8z" />
</svg>
