<svg
  xmlns="http://www.w3.org/2000/svg"
  width="24"
  height="24"
  viewBox="0 0 24 24"
  fill="none"
  stroke="currentColor"
  stroke-width="1"
>
  <path d="M16.418 12.764h-4.745c-.327 0-.545-.218-.545-.545V6.274c0-.327.218-.545.545-.545s.545.218.545.545v5.4h4.2c.327 0 .545.218.545.545s-.273.545-.545.545z" />
  <path d="M12 1.473C6.164 1.473 1.473 6.164 1.473 12S6.164 22.527 12 22.527 22.527 17.836 22.527 12 17.836 1.473 12 1.473zm0 19.963c-5.182 0-9.436-4.255-9.436-9.436S6.819 2.564 12 2.564 21.436 6.819 21.436 12 17.181 21.436 12 21.436z" />
</svg>
