<svg
  xmlns="http://www.w3.org/2000/svg"
  width="24"
  height="24"
  viewBox="0 0 24 24"
  fill="none"
  stroke="currentColor"
  stroke-width="1"
>
  <path d="M18.327 8.455h.109c.054 0 .164-.055.218-.055.545-.545 1.309-1.8.491-2.782-1.145-1.364-.764-2.455-.709-2.509.055-.109 0-.273-.109-.327-.164-.055-.327-.055-.382.055-.055.055-1.636 1.855-1.255 3.382.327 1.636 1.582 2.236 1.636 2.236zm-.545-4.473c.055.545.273 1.255.927 2.018.545.655-.055 1.582-.327 1.909-.327-.218-.927-.764-1.2-1.8-.164-.709.218-1.582.6-2.127z" />
  <path d="M21.055 15.6c-.218-3.545-2.291-5.727-4.309-7.855-1.909-1.964-3.655-3.873-3.436-6.655 0-.109-.055-.218-.164-.273s-.218-.055-.327.055c-.655.6-3.927 3.655-2.564 6.655.545 1.255.709 2.291.436 3-.164.382-.436.655-.927.818-.873.327-1.582.164-2.073-.491-.709-.927-.873-2.564-.436-4.309.055-.109 0-.273-.109-.327s-.273-.055-.327.055c-.6.655-3.545 4.145-3.873 9.545-.164 2.727.109 4.364.273 5.127.164.927.873 1.909 2.127 2.018h.164c1.145.109 2.727.218 6.6.218s5.345-.055 6.655-.218c1.636-.218 2.073-1.636 2.127-2.018v-.109c.164-.764.382-1.8.164-5.236zm-.71 5.073v.109c-.055.327-.436 1.418-1.691 1.636-1.091.164-2.4.218-6.6.218-3.818 0-5.4-.109-6.545-.218h-.164c-1.091-.109-1.527-1.036-1.636-1.582-.164-.818-.436-2.345-.218-5.018.273-4.036 2.018-6.982 3.055-8.4-.164 1.527.055 2.891.709 3.709s1.636 1.091 2.673.655c.6-.218.982-.6 1.2-1.091.327-.818.218-1.964-.436-3.436-.982-2.182.982-4.582 1.964-5.564.055 2.673 1.8 4.473 3.6 6.382 1.964 2.018 3.927 4.145 4.145 7.527.327 3.382.109 4.418-.055 5.073z" />
  <path d="M18.709 14.345c-.055.055-4.255 3.055-4.855 3.382l-.218.109c-.491.327-1.091.709-1.745.709-.709 0-1.255-.382-1.745-.709l-.218-.109c-.545-.327-4.8-3.382-4.855-3.382-.109-.109-.273-.055-.382.055s-.055.273.055.382c.164.109 4.255 3.055 4.855 3.436l.218.109c.545.327 1.2.764 2.073.764.818 0 1.527-.436 2.073-.764l.218-.109c.6-.382 4.691-3.327 4.855-3.436.109-.109.164-.273.055-.382-.055-.109-.218-.164-.382-.055z" />
</svg>
