<svg
  xmlns="http://www.w3.org/2000/svg"
  width="24"
  height="24"
  viewBox="0 0 24 24"
  fill="none"
  stroke="currentColor"
  stroke-width="1"
>
  <path d="M12.135 15.578a.507.507 0 0 0-.508.508v3.57a.508.508 0 0 0 1.017 0v-3.57a.508.508 0 0 0-.509-.508z" />
  <path d="M19.178 11.238V7.229c0-3.883-3.158-7.042-7.041-7.042S5.094 3.346 5.094 7.229v4.009H3.83v13.178h16.616V11.238h-1.267zm-7.041 10.189a3.6 3.6 0 1 1 0-7.2 3.6 3.6 0 0 1 0 7.2zm4.741-10.189H7.393V7.229c0-2.616 2.128-4.744 4.744-4.744s4.741 2.128 4.741 4.744v4.009z" />
</svg>
