<svg
  xmlns="http://www.w3.org/2000/svg"
  width="24"
  height="24"
  viewBox="0 0 24 24"
  fill="none"
  stroke="currentColor"
  stroke-width="1"
>
  <path d="M11.4 21.545c-.109 0-.327 0-.436-.109a.528.528 0 0 1 0-.764l8.945-8.945c1.855-1.855 1.855-4.8 0-6.655s-4.8-1.855-6.655 0l-9.709 9.709c-1.2 1.2-1.2 3.055 0 4.145 1.2 1.2 3.055 1.2 4.145 0l9.818-9.709c.218-.218.327-.545.327-.873s-.109-.655-.327-.873c-.436-.436-1.2-.436-1.745 0l-8.945 8.945c-.218.218-.545.218-.764 0s-.218-.545 0-.764l8.945-8.945c.873-.873 2.4-.873 3.273 0 .436.436.655.982.655 1.636s-.218 1.2-.655 1.636l-9.709 9.709c-1.527 1.527-4.145 1.527-5.782 0-1.527-1.527-1.527-4.145 0-5.782l9.709-9.709c2.291-2.291 5.891-2.291 8.182 0s2.291 5.891 0 8.182l-8.945 8.945c0 .218-.109.218-.327.218z" />
</svg>
