<svg
  xmlns="http://www.w3.org/2000/svg"
  width="24"
  height="24"
  viewBox="0 0 24 24"
  fill="none"
  stroke="currentColor"
  stroke-width="1"
>
  <path d="M19.909 5.727c-.655-.709-1.364-1.364-2.182-1.855-.382-.218-.818-.6-1.255-.709a.577.577 0 0 0-.655.818c.218.382.818.545 1.145.764l1.145.818c.709.6 1.309 1.309 1.855 2.127 1.964 3.164 1.909 7.255-.164 10.364-2.018 3-5.618 4.582-9.164 4.091-3.491-.491-6.491-3-7.636-6.382-1.2-3.6-.055-7.582 2.727-10.091.382-.327.764-.6 1.145-.873.218-.164.436-.273.655-.382.164-.109.382-.164.491-.327.273-.382-.055-.927-.545-.873-.436.055-.927.436-1.309.709C4.58 4.962 3.271 6.381 2.453 8.071.762 11.398.98 15.435 2.998 18.544c1.909 3 5.345 4.855 8.891 4.855.873 0 1.8-.109 2.673-.327 3.382-.873 6.218-3.491 7.309-6.818a10.4 10.4 0 0 0-1.964-10.527z" />
  <path d="M12 12.382a.546.546 0 0 0 .545-.545V1.201c0-.709-1.145-.709-1.145 0v10.582c.055.327.273.6.6.6z" />
</svg>
