<svg
  xmlns="http://www.w3.org/2000/svg"
  width="24"
  height="24"
  viewBox="0 0 24 24"
  fill="none"
  stroke="currentColor"
  stroke-width="1"
>
  <path d="M19.527 11.727h-2.509v-1.636c0-.164-.109-.273-.273-.273s-.273.109-.273.273v1.636h-12c-.164 0-.273.109-.273.273s.109.273.273.273h12v1.636c0 .164.109.273.273.273s.273-.109.273-.273v-1.636h2.509c.164 0 .273-.109.273-.273s-.164-.273-.273-.273z" />
  <path d="M19.527 17.4h-9.436v-1.636c0-.164-.109-.273-.273-.273s-.273.109-.273.273V17.4H4.472c-.164 0-.273.109-.273.273s.109.273.273.273h5.073v1.636c0 .164.109.273.273.273s.273-.109.273-.273v-1.636h9.382c.164 0 .273-.109.273-.273s-.109-.273-.218-.273z" />
  <path d="M4.473 6.6h2.509v1.636c0 .164.109.273.273.273s.273-.109.273-.273V6.6h12c.164 0 .273-.109.273-.273s-.109-.273-.273-.273h-12V4.418c0-.164-.109-.273-.273-.273s-.273.109-.273.273v1.636H4.473c-.164 0-.273.109-.273.273s.164.273.273.273z" />
</svg>
