<svg
  xmlns="http://www.w3.org/2000/svg"
  width="24"
  height="24"
  viewBox="0 0 24 24"
  fill="none"
  stroke="currentColor"
  stroke-width="1"
>
  <path d="M13.964 18.491H2.728c-.164 0-.273-.109-.273-.273 0-3.655 2.509-4.8 3.6-5.291.164-.055.382-.164.382-.218.327-.327.273-.545-.218-1.255-.436-.6-.982-1.364-.982-2.564 0-1.691 1.145-3.436 3.109-3.436s3.109 1.745 3.109 3.436c0 1.2-.545 1.964-.982 2.564-.491.709-.6.873-.218 1.255.055.055.218.109.382.218 1.091.491 3.6 1.582 3.6 5.291 0 .164-.164.273-.273.273zM3 17.945h10.691c-.109-3.109-2.236-4.036-3.273-4.473-.273-.109-.436-.218-.545-.327-.709-.709-.273-1.309.164-1.909.382-.545.873-1.2.873-2.236 0-1.418-.982-2.891-2.564-2.891C6.71 6.109 5.782 7.582 5.782 9c0 1.036.491 1.691.873 2.236.436.6.873 1.255.164 1.909-.109.109-.273.164-.545.327-1.036.436-3.164 1.364-3.273 4.473z" />
  <path d="M21.273 13.964h-4.527c-.164 0-.273-.109-.273-.273s.109-.273.273-.273h4.527c.164 0 .273.109.273.273s-.109.273-.273.273z" />
  <path d="M21.273 7.855H14.4c-.164 0-.273-.109-.273-.273s.109-.273.273-.273h6.873c.164 0 .273.109.273.273s-.109.273-.273.273z" />
  <path d="M21.273 10.855H14.4c-.164 0-.273-.109-.273-.273s.109-.273.273-.273h6.873c.164 0 .273.109.273.273s-.109.273-.273.273z" />
</svg>
