<svg
  xmlns="http://www.w3.org/2000/svg"
  width="24"
  height="24"
  viewBox="0 0 24 24"
  fill="none"
  stroke="currentColor"
  stroke-width="1"
>
  <path d="M8.182 5.291l3.273-3.273v13.8c0 .327.218.545.545.545s.545-.218.545-.545v-13.8l3.273 3.273c.109.109.273.164.382.164s.273-.055.382-.164a.528.528 0 0 0 0-.764l-4.2-4.2c-.055-.055-.109-.109-.164-.109-.055-.055-.164-.055-.218-.055s-.164 0-.218.055c-.055.055-.109.055-.164.109l-4.2 4.2c-.218.218-.218.545 0 .764s.545.218.764 0z" />
  <path d="M18.491 24H5.509a1.607 1.607 0 0 1-1.636-1.636V10.419c0-.927.709-1.636 1.636-1.636h3.218c.327 0 .545.218.545.545s-.218.545-.545.545H5.509c-.327 0-.545.218-.545.545v11.945c0 .327.218.545.545.545h12.927c.327 0 .545-.218.545-.545V10.418c0-.327-.218-.545-.545-.545h-3.164c-.327 0-.545-.218-.545-.545s.218-.545.545-.545h3.218c.927 0 1.636.709 1.636 1.636v11.945c0 .927-.764 1.636-1.636 1.636z" />
</svg>
