<svg
  xmlns="http://www.w3.org/2000/svg"
  width="24"
  height="24"
  viewBox="0 0 24 24"
  fill="none"
  stroke="currentColor"
  stroke-width="1"
>
  <path d="M15.491 6.164V3.982c0-1.964-1.582-3.491-3.491-3.491S8.509 2.073 8.509 3.982v2.182h-.655v6.545h8.236V6.164h-.6zm-.709 0H9.218V3.982C9.218 2.455 10.473 1.2 12 1.2s2.782 1.255 2.782 2.782v2.182z" />
  <path d="M11.727 21.764c.055.055.055.055.109.055s.109.055.164.055.109 0 .164-.055c.055 0 .109-.055.109-.055l2.673-2.673c.164-.164.164-.382 0-.491-.164-.164-.382-.164-.491 0l-2.073 2.073v-5.4c0-.218-.164-.382-.382-.382s-.382.164-.382.382v5.345L9.6 18.545c-.164-.164-.382-.164-.491 0-.164.164-.164.382 0 .491l2.618 2.727z" />
  <path d="M17.782 22.909H6.218c-.218 0-.382.164-.382.382s.164.382.382.382h11.564c.218 0 .382-.164.382-.382s-.164-.382-.382-.382z" />
</svg>
