<svg
  xmlns="http://www.w3.org/2000/svg"
  width="24"
  height="24"
  viewBox="0 0 24 24"
  fill="none"
  stroke="currentColor"
  stroke-width="1"
>
  <path d="M21.764 4.418L7.8 6.163c-.273.055-.436.436-.218.655l4.145 3.491.055.327c-.6.545-1.364.764-1.8.873-1.036-.982-2.564-.927-3.545 0l-1.091 1.036-.218-.218-3.327 3.164 3.927 4.145 3.327-3.164-.218-.218 1.145-1.036c.818-.818.982-2.073.491-3a4.278 4.278 0 0 0 1.418-.709l.655 4.2c0 .164.164.273.273.273.164.055.273 0 .382-.164l8.945-10.909c.055 0 .055-.055.055-.164 0-.164-.218-.382-.436-.327zm-12.382 10.2l-1.091 1.036-2.455-2.618L6.927 12c.709-.655 1.8-.655 2.564.055.655.709.655 1.909-.109 2.564zm-.655-7.8l11.291-1.473-7.855 4.364-3.436-2.891zm4.364 8.018l-.655-4.473 7.855-4.364-7.2 8.836z" />
</svg>
