<svg
  xmlns="http://www.w3.org/2000/svg"
  width="24"
  height="24"
  viewBox="0 0 24 24"
  fill="none"
  stroke="currentColor"
  stroke-width="1"
>
  <path d="M15.436 6.164V3.982c0-1.964-1.582-3.491-3.491-3.491S8.454 2.073 8.454 3.982v2.182h-.655v6.545h8.236V6.164h-.6zm-.709 0H9.218V3.982C9.218 2.455 10.473 1.2 12 1.2s2.727 1.255 2.727 2.782v2.182z" />
  <path d="M9.545 18.218l2.073-2.073v5.345c0 .218.164.382.382.382s.382-.164.382-.382v-5.345l2.073 2.073c.055.055.164.109.273.109s.164-.055.273-.109c.164-.164.164-.382 0-.491l-2.673-2.673c-.055-.055-.055-.055-.109-.055-.109-.055-.164-.055-.273 0-.055 0-.109.055-.109.055l-2.673 2.673c-.164.164-.164.382 0 .491 0 .109.273.109.382 0z" />
  <path d="M17.782 22.909H6.218c-.218 0-.382.164-.382.382s.164.382.382.382h11.564c.218 0 .382-.164.382-.382s-.164-.382-.382-.382z" />
</svg>
