<svg
  xmlns="http://www.w3.org/2000/svg"
  width="24"
  height="24"
  viewBox="0 0 24 24"
  fill="none"
  stroke="currentColor"
  stroke-width="1"
>
  <path d="M12 17.673c-.218 0-.218-.109-.327-.109l-5.236-5.018c-.218-.218-.218-.545 0-.764s.545-.218.764 0l4.255 4.145V9.163c0-3.6 2.836-6.436 6.436-6.436h3.055c.327 0 .545.218.545.545s-.218.545-.545.545h-3.055a5.354 5.354 0 0 0-5.345 5.345v6.655l4.255-4.145a.528.528 0 0 1 .764 0c.109.109.109.218.109.327s-.109.327-.218.436l-5.127 5.018c0 .109-.218.218-.327.218z" />
  <path d="M19.527 21.273H4.472A2.072 2.072 0 0 1 2.399 19.2v-6.982c0-.327.218-.545.545-.545s.545.218.545.545V19.2c0 .545.436.982.982.982h14.945a.978.978 0 0 0 .982-.982v-6.982c0-.327.218-.545.545-.545s.545.218.545.545V19.2c0 1.2-.873 2.073-1.964 2.073z" />
</svg>
