<svg
  xmlns="http://www.w3.org/2000/svg"
  width="24"
  height="24"
  viewBox="0 0 24 24"
  fill="none"
  stroke="currentColor"
  stroke-width="1"
>
  <path d="M20.4 14.018a.485.485 0 0 0-.655.382c-1.036 3.327-4.036 5.618-7.473 5.727a8.296 8.296 0 0 1-7.364-4.2l2.836.818c.273.109.6-.055.655-.382a.485.485 0 0 0-.382-.655l-3.982-1.145h-.383c-.055 0-.055.055-.109.055l-.055.055s-.055.055-.055.109c0 .055-.055.055-.055.109v.055l-1.145 3.982c-.109.273.055.6.382.655h.164c.218 0 .436-.164.545-.382l.764-2.618c1.636 2.836 4.636 4.582 7.964 4.582h.327c3.927-.109 7.309-2.727 8.455-6.491.055-.273-.109-.6-.436-.655z" />
  <path d="M21.382 4.418a.485.485 0 0 0-.655.382l-.764 2.618a9.21 9.21 0 0 0-8.291-4.582c-3.927.109-7.309 2.727-8.455 6.491-.109.273.055.6.382.655h.164c.218 0 .436-.164.545-.382 1.036-3.327 4.036-5.618 7.473-5.727 3-.109 5.836 1.582 7.309 4.2l-2.836-.818a.485.485 0 0 0-.655.382c-.109.273.055.6.382.655l3.982 1.145h.164c.055 0 .109 0 .164-.055s.055 0 .055 0l.055-.055c.055 0 .055-.055.055-.055l.055-.055c0-.055.055-.055.055-.109v-.055l1.145-3.982c.164-.273 0-.6-.327-.655z" />
</svg>
