<svg
  xmlns="http://www.w3.org/2000/svg"
  width="24"
  height="24"
  viewBox="0 0 24 24"
  fill="none"
  stroke="currentColor"
  stroke-width="1"
>
  <path d="M16.8 8.236H7.145l4.309-4.309c.491-.491-.273-1.309-.818-.818L5.345 8.4a.549.549 0 0 0 .055.818l5.236 5.236c.491.491 1.309-.273.818-.818L7.145 9.327H16.8c2.564 0 4.8 1.909 5.236 4.473.382 2.564-1.145 5.073-3.6 5.836-.273.109-.6.164-.873.218-.327.055-.764-.055-.982.109-.273.164-.382.491-.218.764.218.327.6.273.927.273 1.255-.055 2.455-.545 3.436-1.309 2.018-1.527 3-4.2 2.345-6.709-.818-2.727-3.382-4.745-6.273-4.745z" />
  <path d="M2.182 8.782l4.855-4.855c.491-.491-.273-1.309-.818-.818L.928 8.4a.593.593 0 0 0 0 .818l5.291 5.291c.491.491 1.309-.273.818-.818L2.182 8.782z" />
</svg>
