<svg
  xmlns="http://www.w3.org/2000/svg"
  width="24"
  height="24"
  viewBox="0 0 24 24"
  fill="none"
  stroke="currentColor"
  stroke-width="1"
>
  <path d="M21.327 12.982a6.48 6.48 0 0 0-6.218-4.745H4.418l4.309-4.309c.491-.491-.273-1.309-.818-.818L2.618 8.401a.593.593 0 0 0 0 .818l5.291 5.291c.491.491 1.309-.273.818-.818L4.418 9.383h10.691c2.564 0 4.8 1.909 5.236 4.473.382 2.564-1.145 5.073-3.6 5.836-.273.109-.6.164-.873.218-.327.055-.764-.055-.982.109-.273.164-.382.491-.218.764.218.327.6.273.927.273a6.843 6.843 0 0 0 3.491-1.309c1.964-1.582 2.891-4.309 2.236-6.764z" />
</svg>
