<svg
  xmlns="http://www.w3.org/2000/svg"
  width="24"
  height="24"
  viewBox="0 0 24 24"
  fill="none"
  stroke="currentColor"
  stroke-width="1"
>
  <path d="M21.109 7.418l-4.527-4.582a1.021 1.021 0 0 0-.436-.109H3.273c-.273 0-.545.273-.545.545v17.455c0 .327.273.545.545.545h17.455a.546.546 0 0 0 .545-.545V7.854a.618.618 0 0 0-.164-.436zm-.982 12.709H3.872V3.872h12.055l4.2 4.2v12.055z" />
  <path d="M15.164 5.236H6.328a.546.546 0 0 0-.545.545v4.527c0 .327.273.545.545.545h8.836a.546.546 0 0 0 .545-.545V5.781a.546.546 0 0 0-.545-.545zM6.873 6.327h5.182v3.382H6.873V6.327zm7.691 3.437h-1.418V6.382h1.418v3.382z" />
</svg>
