<svg
  xmlns="http://www.w3.org/2000/svg"
  width="24"
  height="24"
  viewBox="0 0 24 24"
  fill="none"
  stroke="currentColor"
  stroke-width="1"
>
  <path d="M19.145 4.855c-2.018-2.018-5.291-2.564-7.8-1.2C9 4.855 7.581 7.419 7.8 10.037a6.788 6.788 0 0 0 1.582 3.873l-6.327 6.218c-.491.491.273 1.309.818.818l6.273-6.273c2.073 1.745 5.127 2.073 7.527.764s3.764-3.982 3.436-6.655c-.218-1.473-.873-2.891-1.964-3.927-1.255-1.255 1.255 1.255 0 0zm-.763 8.672c-1.691 1.691-4.364 2.127-6.491 1.036-1.964-.982-3.109-3.109-3-5.291.164-2.236 1.636-4.2 3.764-4.909 2.236-.818 4.8 0 6.273 1.909 1.582 2.182 1.364 5.291-.545 7.255-1.091 1.036 1.036-1.091 0 0z" />
</svg>
