<svg
  xmlns="http://www.w3.org/2000/svg"
  width="24"
  height="24"
  viewBox="0 0 24 24"
  fill="none"
  stroke="currentColor"
  stroke-width="1"
>
  <path d="M17.836 21.6c-.109 0-.218-.055-.327-.109L12 17.455l-5.509 4.036c-.436.327-1.036-.109-.873-.655l2.127-6.491-5.564-4.036c-.436-.327-.218-1.036.327-1.036h6.818l2.127-6.436c.164-.491.927-.491 1.091 0l2.127 6.491h6.818c.545 0 .764.709.327 1.036L16.307 14.4l2.127 6.491c.055.327-.218.709-.6.709zM12 16.2c.109 0 .218.055.327.109l4.473 3.218-1.691-5.236a.626.626 0 0 1 .218-.655l4.473-3.218h-5.564c-.218 0-.436-.164-.545-.382L12 4.8l-1.691 5.236c-.055.218-.273.382-.545.382H4.255l4.473 3.218c.218.164.273.382.218.655l-1.691 5.236 4.473-3.218a.416.416 0 0 1 .273-.109z" />
</svg>
