<svg
  xmlns="http://www.w3.org/2000/svg"
  width="24"
  height="24"
  viewBox="0 0 24 24"
  fill="none"
  stroke="currentColor"
  stroke-width="1"
>
  <path d="M9.218 23.182a.496.496 0 0 1-.382-.164L.981 15.163a.593.593 0 0 1 0-.818L14.399.981a.59.59 0 0 1 .382-.164h7.855c.327 0 .545.273.545.545v7.8c0 .164 0 .327-.164.491L9.599 23.017a.496.496 0 0 1-.382.164zm-7.091-8.4l7.091 7.091L22.036 9.055V1.964H15L2.127 14.782zm14.946-4.964c-1.2 0-2.291-.764-2.673-1.855-.436-1.145-.055-2.4.818-3.164a2.72 2.72 0 0 1 3.327-.327c1.036.6 1.582 1.855 1.364 3-.273 1.309-1.473 2.345-2.836 2.345zm0-4.636c-.927 0-1.745.818-1.745 1.745s.818 1.745 1.745 1.745c.927 0 1.745-.818 1.745-1.745 0-.982-.764-1.745-1.745-1.745z" />
</svg>
