<svg
  xmlns="http://www.w3.org/2000/svg"
  width="24"
  height="24"
  viewBox="0 0 24 24"
  fill="none"
  stroke="currentColor"
  stroke-width="1"
>
  <path d="M20.345 5.618h-4.364V2.291a.546.546 0 0 0-.545-.545H8.727a.546.546 0 0 0-.545.545v3.327H3.655c-.709 0-.709 1.145 0 1.145h1.418v13.309c0 1.255.927 2.236 2.236 2.236h9.545c1.255 0 2.236-.927 2.236-2.236V6.708h1.309c.709 0 .709-1.091-.055-1.091zM9.273 2.836h5.564v2.782H9.273V2.836zm8.618 17.237c0 .655-.436 1.091-1.091 1.091H7.309c-.655 0-1.091-.436-1.091-1.091V6.709h11.727v13.364z" />
</svg>
