<?xml version="1.0" encoding="utf-8"?>
<!-- Generated by IcoMoon.io -->
<!DOCTYPE svg PUBLIC "-//W3C//DTD SVG 1.1//EN" "http://www.w3.org/Graphics/SVG/1.1/DTD/svg11.dtd">
<svg version="1.1" xmlns="http://www.w3.org/2000/svg" xmlns:xlink="http://www.w3.org/1999/xlink" width="24" height="24" viewBox="0 0 24 24">
<path fill="#444444" d="M13.091 13.745c0.164 0.164 0.491 0.327 1.036 0.491 0.218 0.109 0.545 0.218 0.818 0.327s0.6 0 0.709-0.273c0.109-0.273 0-0.6-0.273-0.709-0.327-0.109-0.6-0.273-0.873-0.327-0.273-0.109-0.6-0.218-0.655-0.273-0.382-0.382-0.327-0.545 0.382-1.527 0.6-0.873 1.418-2.018 1.418-3.764 0-2.509-1.745-5.073-4.636-5.073s-4.636 2.618-4.636 5.073c0 1.745 0.818 2.945 1.418 3.764 0.709 0.982 0.764 1.145 0.382 1.527-0.055 0.055-0.382 0.164-0.655 0.273-1.855 0.709-6.164 2.345-6.164 7.691 0 0.327 0.273 0.545 0.545 0.545h12.436c0.327 0 0.545-0.273 0.545-0.545s-0.273-0.545-0.545-0.545h-11.782c0.273-4.145 3.709-5.455 5.4-6.109 0.545-0.218 0.818-0.327 1.036-0.491 1.091-1.091 0.382-2.127-0.218-3-0.6-0.818-1.255-1.691-1.255-3.109 0-1.964 1.309-3.982 3.545-3.982 2.182 0 3.491 2.018 3.491 3.982 0 1.418-0.655 2.291-1.255 3.109-0.655 0.818-1.364 1.8-0.218 2.945z"></path>
<path fill="#444444" d="M21.982 17.345h-2.4v-2.4c0-0.327-0.273-0.545-0.545-0.545s-0.545 0.273-0.545 0.545v2.4h-2.4c-0.327 0-0.545 0.273-0.545 0.545 0 0.327 0.273 0.545 0.545 0.545h2.4v2.4c0 0.327 0.273 0.545 0.545 0.545s0.545-0.273 0.545-0.545v-2.4h2.4c0.327 0 0.545-0.273 0.545-0.545s-0.218-0.545-0.545-0.545z"></path>
</svg>
