<?xml version="1.0" encoding="utf-8"?>
<!-- Generated by IcoMoon.io -->
<!DOCTYPE svg PUBLIC "-//W3C//DTD SVG 1.1//EN" "http://www.w3.org/Graphics/SVG/1.1/DTD/svg11.dtd">
<svg version="1.1" xmlns="http://www.w3.org/2000/svg" xmlns:xlink="http://www.w3.org/1999/xlink" width="24" height="24" viewBox="0 0 24 24">
<path fill="#444444" d="M7.036 12.109h9.709c0.327 0 0.545-0.218 0.545-0.545v-2.291c0.109-0.327-0.218-0.545-0.436-0.545h-9.818c-0.218 0-0.545 0.218-0.545 0.545v2.291c0 0.327 0.327 0.545 0.545 0.545zM7.582 9.818h8.727v1.2h-8.727v-1.2z"></path>
<path fill="#444444" d="M22.418 1.091h-20.945c-0.327 0-0.545 0.218-0.545 0.545v4.582c0 0.327 0.218 0.545 0.545 0.545h0.982v15.6c0 0.327 0.218 0.545 0.545 0.545h18c0.327 0 0.545-0.218 0.545-0.545v-15.6h0.982c0.327 0 0.545-0.218 0.545-0.545v-4.582c-0.109-0.327-0.327-0.545-0.655-0.545zM20.345 21.818h-16.8v-15.055h16.909v15.055h-0.109zM21.873 5.673h-19.855v-3.491h19.964v3.491h-0.109z"></path>
</svg>
