<?xml version="1.0" encoding="utf-8"?>
<!-- Generated by IcoMoon.io -->
<!DOCTYPE svg PUBLIC "-//W3C//DTD SVG 1.1//EN" "http://www.w3.org/Graphics/SVG/1.1/DTD/svg11.dtd">
<svg version="1.1" xmlns="http://www.w3.org/2000/svg" xmlns:xlink="http://www.w3.org/1999/xlink" width="24" height="24" viewBox="0 0 24 24">
<path fill="#444444" d="M12 22.527c5.836 0 10.527-4.691 10.527-10.527s-4.691-10.527-10.527-10.527-10.527 4.691-10.527 10.527c0 5.836 4.691 10.527 10.527 10.527zM21.436 12c0 2.4-0.927 4.582-2.4 6.273l-13.309-13.309c1.691-1.473 3.873-2.4 6.273-2.4 5.182 0 9.436 4.255 9.436 9.436zM4.964 5.727l13.309 13.309c-1.691 1.473-3.873 2.4-6.273 2.4-5.182 0-9.436-4.255-9.436-9.436 0-2.4 0.927-4.582 2.4-6.273z"></path>
</svg>
