<?xml version="1.0" encoding="utf-8"?>
<!-- Generated by IcoMoon.io -->
<!DOCTYPE svg PUBLIC "-//W3C//DTD SVG 1.1//EN" "http://www.w3.org/Graphics/SVG/1.1/DTD/svg11.dtd">
<svg version="1.1" xmlns="http://www.w3.org/2000/svg" xmlns:xlink="http://www.w3.org/1999/xlink" width="24" height="24" viewBox="0 0 24 24">
<path fill="#444444" d="M12.818 12l7.909-7.964c0.218-0.218 0.218-0.545 0-0.764s-0.6-0.218-0.818 0l-7.909 7.964-7.964-7.964c-0.218-0.218-0.545-0.218-0.764 0s-0.218 0.545 0 0.764l7.909 7.964-7.909 7.964c-0.218 0.218-0.218 0.545 0 0.764 0.109 0.109 0.273 0.164 0.382 0.164s0.273-0.055 0.382-0.164l7.964-7.909 7.964 7.909c0.109 0.109 0.273 0.164 0.382 0.164s0.273-0.055 0.382-0.164c0.218-0.218 0.218-0.6 0-0.818l-7.909-7.909z"></path>
</svg>
