<?xml version="1.0" encoding="utf-8"?>
<!-- Generated by IcoMoon.io -->
<!DOCTYPE svg PUBLIC "-//W3C//DTD SVG 1.1//EN" "http://www.w3.org/Graphics/SVG/1.1/DTD/svg11.dtd">
<svg version="1.1" xmlns="http://www.w3.org/2000/svg" xmlns:xlink="http://www.w3.org/1999/xlink" width="24" height="24" viewBox="0 0 24 24">
<path fill="#444444" d="M13.855 22.964h-3.764c-0.327 0-0.545-0.273-0.545-0.545v-2.127c-0.6-0.164-1.145-0.436-1.691-0.709l-1.527 1.527c-0.109 0.109-0.273 0.164-0.382 0.164v0c-0.164 0-0.273-0.055-0.382-0.164l-2.673-2.673c-0.218-0.218-0.218-0.6 0-0.818l1.582-1.582c-0.273-0.545-0.491-1.091-0.655-1.636h-2.236c-0.327 0-0.545-0.273-0.545-0.545v-3.764c0-0.327 0.273-0.545 0.545-0.545h2.4c0.164-0.545 0.382-1.036 0.655-1.473l-1.691-1.691c-0.218-0.218-0.218-0.6 0-0.818l2.673-2.673c0.218-0.218 0.6-0.218 0.818 0l1.745 1.745c0.436-0.218 0.927-0.436 1.418-0.6v-2.455c0-0.327 0.273-0.545 0.545-0.545h3.764c0.327 0 0.545 0.273 0.545 0.545v2.509c0.491 0.164 0.982 0.327 1.418 0.6l1.745-1.745c0.164-0.164 0.273-0.218 0.436-0.218v0c0.164 0 0.273 0.055 0.382 0.164l2.673 2.673c0.218 0.218 0.218 0.6 0 0.818l-1.691 1.691c0.273 0.491 0.491 0.982 0.655 1.473h2.4c0.327 0 0.545 0.273 0.545 0.545v3.764c0 0.327-0.273 0.545-0.545 0.545h-2.291c-0.164 0.545-0.382 1.091-0.655 1.636l1.582 1.582c0.218 0.218 0.218 0.6 0 0.818l-2.673 2.673c-0.109 0.109-0.273 0.164-0.382 0.164-0.164 0-0.273-0.055-0.382-0.164l-1.527-1.527c-0.545 0.273-1.091 0.545-1.691 0.709v2.127c0 0.327-0.273 0.545-0.6 0.545zM10.691 21.873h2.618v-2.018c0-0.273 0.164-0.436 0.436-0.545 0.327-0.109 0.709-0.218 1.036-0.327s0.655-0.273 0.927-0.491c0.273-0.164 0.6-0.273 0.873 0l1.418 1.418 1.855-1.855-1.473-1.473c-0.273-0.273-0.164-0.545 0-0.818 0.164-0.327 0.327-0.655 0.436-0.982 0.164-0.436 0.218-1.473 0.873-1.473h2.182v-2.618h-2.236c-0.6 0-0.709-0.982-0.873-1.418-0.109-0.327-0.273-0.6-0.491-0.927-0.164-0.273-0.218-0.545 0-0.818l1.636-1.636-1.855-1.855-1.691 1.745c-0.436 0.436-1.255-0.218-1.691-0.382s-1.364-0.218-1.364-0.873v-2.4h-2.618v2.4c0 0.655-0.927 0.655-1.364 0.873-0.436 0.164-1.2 0.873-1.691 0.382l-1.691-1.691-1.855 1.855 1.636 1.636c0.273 0.273 0.164 0.545 0 0.818s-0.327 0.6-0.491 0.927c-0.164 0.436-0.273 1.364-0.873 1.364h-2.236v2.618h2.127c0.655 0 0.709 1.036 0.873 1.473 0.109 0.327 0.273 0.655 0.436 0.982 0.164 0.273 0.218 0.545 0 0.818l-1.473 1.473 1.855 1.855 1.418-1.418c0.273-0.273 0.545-0.164 0.818 0 0.327 0.164 0.655 0.382 0.982 0.491s0.655 0.218 0.982 0.327c0.273 0.109 0.491 0.273 0.491 0.545v2.018zM12 16.909c-1.964 0-3.764-1.255-4.418-3.109s-0.109-3.982 1.418-5.236c1.527-1.255 3.709-1.418 5.4-0.436 1.691 1.036 2.618 3.055 2.236 4.964-0.436 2.182-2.4 3.818-4.636 3.818zM12 8.618c-1.473 0-2.891 0.982-3.382 2.4s-0.055 3 1.091 3.982c1.145 0.927 2.836 1.091 4.091 0.327 1.309-0.764 1.964-2.291 1.691-3.818-0.327-1.691-1.8-2.891-3.491-2.891z"></path>
</svg>
