<?xml version="1.0" encoding="utf-8"?>
<!-- Generated by IcoMoon.io -->
<!DOCTYPE svg PUBLIC "-//W3C//DTD SVG 1.1//EN" "http://www.w3.org/Graphics/SVG/1.1/DTD/svg11.dtd">
<svg version="1.1" xmlns="http://www.w3.org/2000/svg" xmlns:xlink="http://www.w3.org/1999/xlink" width="24" height="24" viewBox="0 0 24 24">
<path fill="#444444" d="M17.945 12.982c-0.327 0-0.545 0.273-0.545 0.545v9.327h-15.055v-21.709h15v2.291c0 0.709 1.145 0.709 1.145 0v-2.836c0-0.327-0.273-0.545-0.545-0.545h-16.145c-0.327 0-0.545 0.273-0.545 0.545v22.855c0 0.327 0.273 0.545 0.545 0.545h16.145c0.327 0 0.545-0.273 0.545-0.545v-9.927c0-0.327-0.273-0.545-0.545-0.545z"></path>
<path fill="#444444" d="M22.582 5.345l-1.909-1.909c-0.218-0.218-0.6-0.218-0.818 0l-9.982 10.036c-0.055 0.055-0.109 0.109-0.109 0.164l-1.691 3.6c-0.218 0.436 0.273 0.982 0.764 0.764l3.491-1.582c0.055-0.055 0.109-0.055 0.164-0.109l10.2-10.145c0.109-0.218 0.109-0.6-0.109-0.818zM11.673 15.436l-1.964 0.927 0.982-2.127 9.6-9.6 1.145 1.145-9.764 9.655z"></path>
</svg>
