<?xml version="1.0" encoding="utf-8"?>
<!-- Generated by IcoMoon.io -->
<!DOCTYPE svg PUBLIC "-//W3C//DTD SVG 1.1//EN" "http://www.w3.org/Graphics/SVG/1.1/DTD/svg11.dtd">
<svg version="1.1" xmlns="http://www.w3.org/2000/svg" xmlns:xlink="http://www.w3.org/1999/xlink" width="24" height="24" viewBox="0 0 24 24">
<path fill="#444444" d="M12 2.564c5.182 0 9.436 4.255 9.436 9.436s-4.255 9.436-9.436 9.436-9.436-4.255-9.436-9.436 4.255-9.436 9.436-9.436zM12 1.473c-5.836 0-10.527 4.691-10.527 10.527s4.691 10.527 10.527 10.527 10.527-4.691 10.527-10.527-4.691-10.527-10.527-10.527v0z"></path>
<path fill="#444444" d="M17.618 12.545h-11.236c-0.327 0-0.545-0.218-0.545-0.545s0.218-0.545 0.545-0.545h11.236c0.327 0 0.545 0.218 0.545 0.545s-0.273 0.545-0.545 0.545z"></path>
</svg>
