<?xml version="1.0" encoding="utf-8"?>
<!-- Generated by IcoMoon.io -->
<!DOCTYPE svg PUBLIC "-//W3C//DTD SVG 1.1//EN" "http://www.w3.org/Graphics/SVG/1.1/DTD/svg11.dtd">
<svg version="1.1" xmlns="http://www.w3.org/2000/svg" xmlns:xlink="http://www.w3.org/1999/xlink" width="24" height="24" viewBox="0 0 24 24">
<path fill="#444444" d="M18.436 12.655l-5.891 5.891v-16.909c0-0.709-1.091-0.709-1.091 0v16.909l-5.891-5.891c-0.491-0.491-1.309 0.273-0.818 0.818l6.818 6.818c0.164 0.164 0.491 0.218 0.709 0.055v0c0.055 0 0.055-0.055 0.109-0.055l6.818-6.818c0.218-0.218 0.218-0.6 0-0.818s-0.545-0.218-0.764 0z"></path>
<path fill="#444444" d="M20.345 21.655h-16.691c-0.709 0-0.709 1.145 0 1.145h16.636c0.764 0 0.764-1.145 0.055-1.145z"></path>
</svg>
