<?xml version="1.0" encoding="utf-8"?>
<!-- Generated by IcoMoon.io -->
<!DOCTYPE svg PUBLIC "-//W3C//DTD SVG 1.1//EN" "http://www.w3.org/Graphics/SVG/1.1/DTD/svg11.dtd">
<svg version="1.1" xmlns="http://www.w3.org/2000/svg" xmlns:xlink="http://www.w3.org/1999/xlink" width="24" height="24" viewBox="0 0 24 24">
<path fill="#444444" d="M20.727 6.436c0-0.109 0-0.164-0.055-0.273-0.055-0.055-0.055-0.109-0.109-0.164l-5.891-5.836c-0.109-0.109-0.218-0.164-0.382-0.164h-10.473c-0.327 0-0.545 0.273-0.545 0.545v22.855c0 0.327 0.273 0.545 0.545 0.545h16.364c0.327 0 0.545-0.273 0.545-0.545v-16.964c0 0.055 0 0 0 0zM14.836 1.909l3.982 3.982h-3.982v-3.982zM4.364 22.855v-21.709h9.382v5.345c0 0.327 0.273 0.545 0.545 0.545h5.345v15.818h-15.273z"></path>
</svg>
