<?xml version="1.0" encoding="utf-8"?>
<!-- Generated by IcoMoon.io -->
<!DOCTYPE svg PUBLIC "-//W3C//DTD SVG 1.1//EN" "http://www.w3.org/Graphics/SVG/1.1/DTD/svg11.dtd">
<svg version="1.1" xmlns="http://www.w3.org/2000/svg" xmlns:xlink="http://www.w3.org/1999/xlink" width="24" height="24" viewBox="0 0 24 24">
<path fill="#444444" d="M18.709 2.673l1.582 1.582-12.709 12.764-2.836 1.364 1.255-2.945 12.709-12.764zM18.709 1.582c-0.327 0-0.545 0.109-0.818 0.327l-12.709 12.709c-0.109 0.109-0.218 0.218-0.218 0.327l-1.364 2.945c-0.218 0.436-0.109 0.927 0.218 1.255 0.218 0.218 0.436 0.327 0.818 0.327 0.109 0 0.327 0 0.436-0.109l2.836-1.364c0.109 0 0.218-0.109 0.327-0.218l12.873-12.709c0.436-0.436 0.436-1.145 0-1.582l-1.582-1.582c-0.164-0.218-0.491-0.327-0.818-0.327v0 0z"></path>
<path fill="#444444" d="M18.709 22.418h-15.545c-0.327 0-0.545-0.218-0.545-0.545s0.218-0.545 0.545-0.545h15.545c0.327 0 0.545 0.218 0.545 0.545s-0.327 0.545-0.545 0.545z"></path>
</svg>
