<?xml version="1.0" encoding="utf-8"?>
<!-- Generated by IcoMoon.io -->
<!DOCTYPE svg PUBLIC "-//W3C//DTD SVG 1.1//EN" "http://www.w3.org/Graphics/SVG/1.1/DTD/svg11.dtd">
<svg version="1.1" xmlns="http://www.w3.org/2000/svg" xmlns:xlink="http://www.w3.org/1999/xlink" width="24" height="24" viewBox="0 0 24 24">
<path fill="#444444" d="M7.964 15.055l-0.818 1.8 1.8-0.818 7.909-7.909-0.982-0.982z"></path>
<path fill="#444444" d="M12 0c-6.655 0-12 5.345-12 12s5.345 12 12 12 12-5.345 12-12-5.345-12-12-12zM17.345 8.618l-7.909 7.909c-0.055 0.055-0.164 0.055-0.218 0.164l-1.745 0.873c-0.055 0.055-0.218 0.055-0.273 0.055-0.218 0-0.327-0.055-0.491-0.218-0.218-0.218-0.273-0.491-0.164-0.764l0.873-1.855c0-0.055 0.055-0.164 0.164-0.218l7.909-7.909c0.164-0.164 0.273-0.218 0.491-0.218v0c0.218 0 0.327 0.055 0.491 0.218l0.982 0.982c0.218 0.273 0.218 0.709-0.109 0.982z"></path>
</svg>
