<?xml version="1.0" encoding="utf-8"?>
<!-- Generated by IcoMoon.io -->
<!DOCTYPE svg PUBLIC "-//W3C//DTD SVG 1.1//EN" "http://www.w3.org/Graphics/SVG/1.1/DTD/svg11.dtd">
<svg version="1.1" xmlns="http://www.w3.org/2000/svg" xmlns:xlink="http://www.w3.org/1999/xlink" width="24" height="24" viewBox="0 0 24 24">
<path fill="#444444" d="M19.855 4.691h-4.2v-3.109c0-0.327-0.273-0.545-0.545-0.545h-6.273c-0.327 0-0.545 0.273-0.545 0.545v3.109h-4.145c-0.327 0-0.545 0.273-0.545 0.545s0.273 0.545 0.545 0.545h1.255v5.127c0 0.327 0.273 0.545 0.545 0.545 0 0 0 0 0 0 0.164 0 0.273-0.055 0.382-0.164l2.618-2.618 2.618 2.564c0.218 0.218 0.6 0.218 0.818 0l2.618-2.564 2.618 2.564c0.109 0.109 0.327 0.164 0.491 0.164 0.164-0.055 0.327-0.164 0.436-0.327 0.055-0.055 0.055-0.164 0.055-0.273v-5.073h1.255c0.327 0 0.545-0.273 0.545-0.545s-0.218-0.491-0.545-0.491zM9.382 2.127h5.182v2.564h-5.182v-2.564zM17.455 9.545l-2.018-2.018c-0.218-0.218-0.6-0.218-0.818 0l-2.618 2.564-2.618-2.564c-0.109-0.109-0.273-0.164-0.382-0.164-0.164 0-0.273 0.055-0.382 0.164l-2.073 2.018v-3.709h10.909v3.709z"></path>
<path fill="#444444" d="M8.4 17.073c0.164 0 0.273-0.055 0.382-0.164l2.4-2.4c0.109-0.109 0.164-0.273 0.164-0.382s-0.055-0.273-0.164-0.382l-2.4-2.4c-0.218-0.218-0.6-0.218-0.818 0l-2.4 2.4c-0.218 0.218-0.218 0.6 0 0.818l2.4 2.4c0.109 0.055 0.273 0.109 0.436 0.109zM8.4 12.491l1.636 1.636-1.636 1.636-1.636-1.636 1.636-1.636z"></path>
<path fill="#444444" d="M14.782 16.091c0.109 0.109 0.273 0.164 0.382 0.164s0.273-0.055 0.382-0.164l2.4-2.4c0.109-0.109 0.164-0.273 0.164-0.382s-0.055-0.273-0.164-0.382l-2.4-2.4c-0.218-0.218-0.6-0.218-0.818 0l-2.4 2.4c-0.109 0.109-0.164 0.273-0.164 0.382s0.055 0.273 0.164 0.382l2.455 2.4zM15.164 11.673l1.636 1.636-1.636 1.636-1.636-1.636 1.636-1.636z"></path>
<path fill="#444444" d="M14.673 17.618l-1.909-1.909c-0.218-0.218-0.6-0.218-0.818 0l-1.909 1.909c-0.109 0.109-0.218 0.218-0.218 0.382s0.055 0.273 0.164 0.382l1.909 1.909c0.109 0.109 0.273 0.164 0.382 0.164s0.273-0.055 0.382-0.164l1.909-1.909c0.327-0.218 0.327-0.545 0.109-0.764zM12.327 19.145l-1.145-1.145 1.145-1.145 1.145 1.145-1.145 1.145z"></path>
<path fill="#444444" d="M17.509 18.709c-0.218-0.218-0.6-0.218-0.818 0l-1.418 1.418c-0.218 0.218-0.218 0.6 0 0.818l1.418 1.418c0.109 0.109 0.273 0.164 0.382 0.164s0.273-0.055 0.382-0.164l1.418-1.418c0.218-0.218 0.218-0.6 0-0.818l-1.364-1.418zM17.127 21.109l-0.6-0.6 0.6-0.6 0.6 0.6-0.6 0.6z"></path>
<path fill="#444444" d="M8.836 19.145c-0.218-0.218-0.6-0.218-0.818 0l-1.418 1.418c-0.109 0.109-0.164 0.273-0.164 0.382s0.055 0.273 0.164 0.382l1.418 1.418c0.109 0.109 0.273 0.164 0.382 0.164s0.273-0.055 0.382-0.164l1.418-1.418c0.218-0.218 0.218-0.6 0-0.818l-1.364-1.364zM8.455 21.545l-0.6-0.6 0.6-0.6 0.6 0.6-0.6 0.6z"></path>
</svg>
