<?xml version="1.0" encoding="utf-8"?>
<!-- Generated by IcoMoon.io -->
<!DOCTYPE svg PUBLIC "-//W3C//DTD SVG 1.1//EN" "http://www.w3.org/Graphics/SVG/1.1/DTD/svg11.dtd">
<svg version="1.1" xmlns="http://www.w3.org/2000/svg" xmlns:xlink="http://www.w3.org/1999/xlink" width="24" height="24" viewBox="0 0 24 24">
<path fill="#444444" d="M22.036 22.473h-20.073c-0.709 0-0.545-0.927-0.545-1.418 0.055-0.545 0.164-1.145 0.273-1.691 0.273-0.927 0.709-1.8 1.309-2.564 0.982-1.255 2.291-2.182 3.764-2.836 0.327-0.164 0.6-0.273 0.927-0.382 0.382-0.164 0.873-0.273 1.2-0.491 0.709-0.709-0.109-1.473-0.545-2.073-0.6-0.818-1.091-1.745-1.309-2.782-0.382-1.909 0.273-4.145 1.745-5.509 1.527-1.418 3.927-1.636 5.727-0.491 1.691 1.036 2.564 3.109 2.564 5.073 0 1.255-0.436 2.4-1.145 3.436-0.327 0.491-0.709 0.927-0.927 1.418-0.218 0.382-0.164 0.655 0.164 0.982 0.327 0.218 0.709 0.273 1.036 0.436 0.273 0.109 0.545 0.218 0.818 0.327 0.655 0.273 1.309 0.6 1.909 1.036 1.473 0.982 2.673 2.4 3.218 4.091 0.164 0.545 0.327 1.145 0.382 1.745 0.055 0.491 0.273 1.691-0.491 1.691zM2.564 21.327h18.873c-0.109-1.691-0.764-3.327-1.964-4.527-0.927-0.927-2.073-1.527-3.273-2.018-0.6-0.218-1.309-0.382-1.8-0.764-0.818-0.655-0.818-1.691-0.327-2.564 0.436-0.764 1.036-1.418 1.418-2.236 0.436-0.927 0.545-1.909 0.382-2.891-0.273-1.691-1.473-3.327-3.273-3.6-1.855-0.273-3.436 0.764-4.091 2.455-0.327 0.818-0.436 1.8-0.327 2.673 0.164 0.982 0.6 1.8 1.2 2.564 0.491 0.655 1.145 1.418 1.036 2.291-0.109 1.036-0.982 1.473-1.855 1.745-2.618 0.982-5.018 2.509-5.727 5.4-0.164 0.491-0.218 0.982-0.273 1.473z"></path>
</svg>
