<?xml version="1.0" encoding="utf-8"?>
<!-- Generated by IcoMoon.io -->
<!DOCTYPE svg PUBLIC "-//W3C//DTD SVG 1.1//EN" "http://www.w3.org/Graphics/SVG/1.1/DTD/svg11.dtd">
<svg version="1.1" xmlns="http://www.w3.org/2000/svg" xmlns:xlink="http://www.w3.org/1999/xlink" width="24" height="24" viewBox="0 0 24 24">
<path fill="#444444" d="M22.527 12.982c-0.327 0-0.545 0.273-0.545 0.545v8.236c0 0.655-0.436 1.091-1.091 1.091h-17.782c-0.655 0-1.091-0.436-1.091-1.091v-8.236c0-0.709-1.145-0.709-1.145 0v8.236c0 1.255 0.927 2.236 2.236 2.236h17.782c1.255 0 2.236-0.927 2.236-2.236v-8.236c0-0.327-0.273-0.545-0.6-0.545z"></path>
<path fill="#444444" d="M11.618 17.127c0.218 0.218 0.6 0.218 0.818 0l5.782-5.782c0.491-0.491-0.273-1.309-0.818-0.818l-4.855 4.8v-14.727c0-0.709-1.145-0.709-1.145 0v14.782l-4.8-4.8c-0.491-0.491-1.309 0.273-0.818 0.818l5.836 5.727z"></path>
</svg>
