<?xml version="1.0" encoding="utf-8"?>
<!-- Generated by IcoMoon.io -->
<!DOCTYPE svg PUBLIC "-//W3C//DTD SVG 1.1//EN" "http://www.w3.org/Graphics/SVG/1.1/DTD/svg11.dtd">
<svg version="1.1" xmlns="http://www.w3.org/2000/svg" xmlns:xlink="http://www.w3.org/1999/xlink" width="24" height="24" viewBox="0 0 24 24">
<path fill="#444444" d="M17.836 5.891l-0.491 0.218-0.709-1.745c-0.491-1.145-1.582-1.8-2.782-1.8-0.218 0-0.382 0-0.6 0.055 0 0.055 0.055 0.164 0.055 0.218 0 0.164 0.055 0.218 0.055 0.382 0.164 0 0.273-0.055 0.436-0.055 0.927 0 1.8 0.491 2.182 1.473l0.709 1.745-4.364 1.964-0.655-1.473c-0.164 0.164-0.382 0.218-0.6 0.273l0.655 1.473-0.491 0.218 2.345 5.182 6.545-2.891-2.291-5.236z"></path>
<path fill="#444444" d="M11.291 0.927c-0.6-0.382-1.145-0.6-1.8-0.6-1.036 0-2.127 0.491-2.673 1.473-0.709 1.091-0.709 2.455-0.055 3.545l-2.891 4.364 0.491 1.582 1.691-0.164 0.655-1.036-0.273-0.873 0.873-1.255 0.927-0.055 0.709-1.091c0.218 0 0.382 0.055 0.6 0.055 1.036 0 2.127-0.491 2.673-1.473 0.982-1.473 0.6-3.491-0.927-4.473zM10.855 3.436c-0.218 0.273-0.491 0.436-0.818 0.436-0.218 0-0.382-0.055-0.6-0.164-0.436-0.273-0.6-0.927-0.273-1.364 0.218-0.273 0.491-0.436 0.818-0.436 0.218 0 0.382 0.055 0.6 0.164 0.436 0.273 0.6 0.927 0.273 1.364z"></path>
<path fill="#444444" d="M11.727 21.764c0.055 0.055 0.055 0.055 0.109 0.055s0.109 0.055 0.164 0.055c0.055 0 0.109 0 0.164-0.055 0.055 0 0.109-0.055 0.109-0.055l2.673-2.673c0.164-0.164 0.164-0.382 0-0.491-0.164-0.164-0.382-0.164-0.491 0l-2.073 2.073v-5.4c0-0.218-0.164-0.382-0.382-0.382s-0.382 0.164-0.382 0.382v5.345l-2.018-2.073c-0.164-0.164-0.382-0.164-0.491 0-0.164 0.164-0.164 0.382 0 0.491l2.618 2.727z"></path>
<path fill="#444444" d="M17.782 22.909h-11.564c-0.218 0-0.382 0.164-0.382 0.382s0.164 0.382 0.382 0.382h11.564c0.218 0 0.382-0.164 0.382-0.382s-0.164-0.382-0.382-0.382z"></path>
</svg>
