<?xml version="1.0" encoding="utf-8"?>
<!-- Generated by IcoMoon.io -->
<!DOCTYPE svg PUBLIC "-//W3C//DTD SVG 1.1//EN" "http://www.w3.org/Graphics/SVG/1.1/DTD/svg11.dtd">
<svg version="1.1" xmlns="http://www.w3.org/2000/svg" xmlns:xlink="http://www.w3.org/1999/xlink" width="24" height="24" viewBox="0 0 24 24">
<path fill="rgb(68, 68, 68)" d="M8.384 20.182l-0.003-3.15h3.162l2.336-2.337c2.505 0.819 5.359 0.264 7.353-1.723 2.816-2.818 2.816-7.389 0-10.205s-7.387-2.817-10.204 0.002c-1.994 1.994-2.544 4.849-1.714 7.361l-8.651 8.648-0.006 4.571 4.573-0.004v-3.16h3.154zM15.68 8.315c-0.966-0.966-0.959-2.529 0.003-3.49 0.964-0.967 2.526-0.971 3.49 0 0.97 0.963 0.967 2.525 0.004 3.488-0.962 0.963-2.53 0.971-3.497 0.002z"></path>
</svg>
