<?xml version="1.0" encoding="utf-8"?>
<!-- Generated by IcoMoon.io -->
<!DOCTYPE svg PUBLIC "-//W3C//DTD SVG 1.1//EN" "http://www.w3.org/Graphics/SVG/1.1/DTD/svg11.dtd">
<svg version="1.1" xmlns="http://www.w3.org/2000/svg" xmlns:xlink="http://www.w3.org/1999/xlink" width="24" height="24" viewBox="0 0 24 24">
<path fill="#444444" d="M19.527 10.309l-0.764 0.327c0 0 0 0 0 0l-0.982-2.236c-0.818-1.8-2.836-2.673-4.691-2.073-0.273-1.091-0.927-2.018-1.855-2.673-0.709-0.491-1.582-0.764-2.455-0.764-1.473 0-2.891 0.764-3.709 1.964-0.927 1.527-0.982 3.327-0.164 4.8l-3.655 5.509c-0.055 0.055-0.055 0.164-0.055 0.218l0.655 2.073c0.055 0.109 0.164 0.218 0.273 0.218 0 0 0 0 0 0l2.236-0.218c0.055 0 0.164-0.055 0.218-0.109l0.873-1.309c0-0.055 0-0.164 0-0.218l-0.273-1.036 0.927-1.418 1.036-0.109c0.055 0 0.164-0.055 0.218-0.109l0.873-1.309c0.218 0 0.382 0.055 0.6 0.055 0.709 0 1.418-0.164 2.073-0.491 0 0.055 0 0.055 0.055 0.109l0.982 2.236-0.764 0.327 2.891 6.655 8.455-3.764-3-6.655zM8.127 11.291c-0.109 0-0.218 0.055-0.273 0.109l-0.873 1.309-1.036 0.109c-0.055 0-0.164 0.055-0.218 0.109l-1.091 1.636c-0.055 0.055-0.055 0.164-0.055 0.218l0.327 1.036-0.709 1.091-1.855 0.164-0.545-1.745 3.709-5.509c0.055-0.109 0.055-0.218 0-0.273-0.818-1.309-0.818-3 0.055-4.255 0.709-1.091 1.964-1.745 3.273-1.745 0.764 0 1.527 0.218 2.182 0.655 0.873 0.6 1.473 1.527 1.691 2.564 0 0.055 0 0.109 0 0.109s0 0 0 0c0.164 0.982-0.055 1.909-0.6 2.727-0.709 1.091-1.964 1.745-3.273 1.745-0.273 0-0.491 0-0.709-0.055zM11.4 11.291c0-0.055-0.055-0.109-0.055-0.164 0.436-0.327 0.873-0.709 1.2-1.2 0.6-0.873 0.818-1.909 0.709-3 1.582-0.6 3.382 0.164 4.091 1.745l0.982 2.236c0 0 0 0 0 0l-5.945 2.618-0.982-2.236zM11.836 14.345l7.418-3.273 2.509 5.673-7.418 3.273-2.509-5.673z"></path>
<path fill="#444444" d="M10.309 5.127c-0.273-0.164-0.545-0.273-0.873-0.273-0.545 0-0.982 0.273-1.309 0.709-0.491 0.709-0.273 1.691 0.436 2.127 0.273 0.164 0.545 0.273 0.873 0.273 0.545 0 0.982-0.273 1.309-0.709 0.491-0.655 0.273-1.636-0.436-2.127zM10.309 6.982c-0.273 0.436-0.927 0.6-1.418 0.273-0.436-0.327-0.6-0.927-0.273-1.418 0.164-0.273 0.491-0.436 0.818-0.436 0.218 0 0.382 0.055 0.545 0.164 0.491 0.327 0.655 0.982 0.327 1.418z"></path>
</svg>
