<?xml version="1.0" encoding="utf-8"?>
<!-- Generated by IcoMoon.io -->
<!DOCTYPE svg PUBLIC "-//W3C//DTD SVG 1.1//EN" "http://www.w3.org/Graphics/SVG/1.1/DTD/svg11.dtd">
<svg version="1.1" xmlns="http://www.w3.org/2000/svg" xmlns:xlink="http://www.w3.org/1999/xlink" width="24" height="24" viewBox="0 0 24 24">
<path fill="#444444" d="M20.782 3.327c0-0.055-0.055-0.164-0.109-0.164-0.055-0.055-0.109-0.055-0.218-0.055 0 0-0.655 0.109-1.745 0.109-0.927 0-1.8-0.109-2.673-0.273-2.509-0.491-3.873-1.636-3.927-1.691-0.109-0.109-0.273-0.109-0.327 0 0 0-1.364 1.145-3.927 1.691-0.873 0.164-1.8 0.273-2.673 0.273-1.036 0-1.691-0.109-1.745-0.109s-0.164 0-0.218 0.055c0 0.055 0 0.109 0 0.164-2.345 16.091 8.618 19.364 8.727 19.418 0 0 0.055 0 0.055 0s0.055 0 0.055 0c0.109-0.055 2.836-0.818 5.291-3.655 2.291-2.564 4.691-7.364 3.436-15.764zM12 22.2c-0.927-0.327-10.364-3.818-8.291-18.545 0.327 0.055 0.818 0.109 1.527 0.109 0.927 0 1.855-0.109 2.782-0.273 2.182-0.436 3.491-1.309 3.982-1.636 0.436 0.327 1.8 1.2 3.982 1.636 0.927 0.164 1.855 0.273 2.782 0.273 0.709 0 1.255-0.055 1.527-0.109 2.073 14.836-7.255 18.218-8.291 18.545z"></path>
<path fill="#444444" d="M15.327 9.982h-0.491v-1.473c0-1.582-1.255-2.836-2.836-2.836s-2.836 1.255-2.836 2.836v1.473h-0.545c-0.164 0-0.273 0.109-0.273 0.273v5.345c0 0.164 0.109 0.273 0.273 0.273h6.709c0.164 0 0.273-0.109 0.273-0.273v-5.345c0-0.164-0.109-0.273-0.273-0.273zM9.709 8.509c0-1.255 1.036-2.291 2.291-2.291s2.291 1.036 2.291 2.291v1.473h-4.582v-1.473zM15.055 15.327h-6.109v-4.8h6.164v4.8z"></path>
</svg>
