<?xml version="1.0" encoding="utf-8"?>
<!-- Generated by IcoMoon.io -->
<!DOCTYPE svg PUBLIC "-//W3C//DTD SVG 1.1//EN" "http://www.w3.org/Graphics/SVG/1.1/DTD/svg11.dtd">
<svg version="1.1" xmlns="http://www.w3.org/2000/svg" xmlns:xlink="http://www.w3.org/1999/xlink" width="24" height="24" viewBox="0 0 24 24">
<path fill="#444444" d="M16.418 12.764h-4.745c-0.327 0-0.545-0.218-0.545-0.545v-5.945c0-0.327 0.218-0.545 0.545-0.545s0.545 0.218 0.545 0.545v5.4h4.2c0.327 0 0.545 0.218 0.545 0.545s-0.273 0.545-0.545 0.545z"></path>
<path fill="#444444" d="M12 1.473c-5.836 0-10.527 4.691-10.527 10.527s4.691 10.527 10.527 10.527 10.527-4.691 10.527-10.527-4.691-10.527-10.527-10.527zM12 21.436c-5.182 0-9.436-4.255-9.436-9.436s4.255-9.436 9.436-9.436 9.436 4.255 9.436 9.436-4.255 9.436-9.436 9.436z"></path>
</svg>
