<?xml version="1.0" encoding="utf-8"?>
<!-- Generated by IcoMoon.io -->
<!DOCTYPE svg PUBLIC "-//W3C//DTD SVG 1.1//EN" "http://www.w3.org/Graphics/SVG/1.1/DTD/svg11.dtd">
<svg version="1.1" xmlns="http://www.w3.org/2000/svg" xmlns:xlink="http://www.w3.org/1999/xlink" width="24" height="24" viewBox="0 0 24 24">
<path fill="#444444" d="M18.327 8.455c0.055 0 0.055 0 0.109 0s0.164-0.055 0.218-0.055c0.545-0.545 1.309-1.8 0.491-2.782-1.145-1.364-0.764-2.455-0.709-2.509 0.055-0.109 0-0.273-0.109-0.327-0.164-0.055-0.327-0.055-0.382 0.055-0.055 0.055-1.636 1.855-1.255 3.382 0.327 1.636 1.582 2.236 1.636 2.236zM17.782 3.982c0.055 0.545 0.273 1.255 0.927 2.018 0.545 0.655-0.055 1.582-0.327 1.909-0.327-0.218-0.927-0.764-1.2-1.8-0.164-0.709 0.218-1.582 0.6-2.127z"></path>
<path fill="#444444" d="M21.055 15.6c-0.218-3.545-2.291-5.727-4.309-7.855-1.909-1.964-3.655-3.873-3.436-6.655 0-0.109-0.055-0.218-0.164-0.273s-0.218-0.055-0.327 0.055c-0.655 0.6-3.927 3.655-2.564 6.655 0.545 1.255 0.709 2.291 0.436 3-0.164 0.382-0.436 0.655-0.927 0.818-0.873 0.327-1.582 0.164-2.073-0.491-0.709-0.927-0.873-2.564-0.436-4.309 0.055-0.109 0-0.273-0.109-0.327s-0.273-0.055-0.327 0.055c-0.6 0.655-3.545 4.145-3.873 9.545-0.164 2.727 0.109 4.364 0.273 5.127 0.164 0.927 0.873 1.909 2.127 2.018h0.164c1.145 0.109 2.727 0.218 6.6 0.218s5.345-0.055 6.655-0.218c1.636-0.218 2.073-1.636 2.127-2.018v-0.109c0.164-0.764 0.382-1.8 0.164-5.236zM20.345 20.673v0.109c-0.055 0.327-0.436 1.418-1.691 1.636-1.091 0.164-2.4 0.218-6.6 0.218-3.818 0-5.4-0.109-6.545-0.218h-0.164c-1.091-0.109-1.527-1.036-1.636-1.582-0.164-0.818-0.436-2.345-0.218-5.018 0.273-4.036 2.018-6.982 3.055-8.4-0.164 1.527 0.055 2.891 0.709 3.709s1.636 1.091 2.673 0.655c0.6-0.218 0.982-0.6 1.2-1.091 0.327-0.818 0.218-1.964-0.436-3.436-0.982-2.182 0.982-4.582 1.964-5.564 0.055 2.673 1.8 4.473 3.6 6.382 1.964 2.018 3.927 4.145 4.145 7.527 0.327 3.382 0.109 4.418-0.055 5.073z"></path>
<path fill="#444444" d="M18.709 14.345c-0.055 0.055-4.255 3.055-4.855 3.382l-0.218 0.109c-0.491 0.327-1.091 0.709-1.745 0.709-0.709 0-1.255-0.382-1.745-0.709l-0.218-0.109c-0.545-0.327-4.8-3.382-4.855-3.382-0.109-0.109-0.273-0.055-0.382 0.055s-0.055 0.273 0.055 0.382c0.164 0.109 4.255 3.055 4.855 3.436l0.218 0.109c0.545 0.327 1.2 0.764 2.073 0.764 0.818 0 1.527-0.436 2.073-0.764l0.218-0.109c0.6-0.382 4.691-3.327 4.855-3.436 0.109-0.109 0.164-0.273 0.055-0.382-0.055-0.109-0.218-0.164-0.382-0.055z"></path>
</svg>
