<?xml version="1.0" encoding="utf-8"?>
<!-- Generated by IcoMoon.io -->
<!DOCTYPE svg PUBLIC "-//W3C//DTD SVG 1.1//EN" "http://www.w3.org/Graphics/SVG/1.1/DTD/svg11.dtd">
<svg version="1.1" xmlns="http://www.w3.org/2000/svg" xmlns:xlink="http://www.w3.org/1999/xlink" width="24" height="24" viewBox="0 0 24 24">
<path fill="rgb(68, 68, 68)" d="M12.135 15.578c-0.281 0-0.508 0.227-0.508 0.508v3.57c0 0.281 0.228 0.508 0.508 0.508s0.509-0.227 0.509-0.508v-3.57c0-0.281-0.228-0.508-0.509-0.508z"></path>
<path fill="rgb(68, 68, 68)" d="M19.178 11.238v-4.009c0-3.883-3.158-7.042-7.041-7.042s-7.043 3.159-7.043 7.042v4.009h-1.264v13.178h16.616v-13.178h-1.267zM12.137 21.427c-1.988 0-3.6-1.612-3.6-3.599s1.612-3.599 3.6-3.599 3.599 1.611 3.599 3.599-1.611 3.599-3.599 3.599zM16.878 11.238h-9.485v-4.009c0-2.616 2.128-4.744 4.744-4.744s4.741 2.128 4.741 4.744v4.009z"></path>
</svg>
