<?xml version="1.0" encoding="utf-8"?>
<!-- Generated by IcoMoon.io -->
<!DOCTYPE svg PUBLIC "-//W3C//DTD SVG 1.1//EN" "http://www.w3.org/Graphics/SVG/1.1/DTD/svg11.dtd">
<svg version="1.1" xmlns="http://www.w3.org/2000/svg" xmlns:xlink="http://www.w3.org/1999/xlink" width="24" height="24" viewBox="0 0 24 24">
<path fill="#444444" d="M11.4 21.545c-0.109 0-0.327 0-0.436-0.109-0.218-0.218-0.218-0.545 0-0.764l8.945-8.945c1.855-1.855 1.855-4.8 0-6.655s-4.8-1.855-6.655 0l-9.709 9.709c-1.2 1.2-1.2 3.055 0 4.145 1.2 1.2 3.055 1.2 4.145 0l9.818-9.709c0.218-0.218 0.327-0.545 0.327-0.873s-0.109-0.655-0.327-0.873c-0.436-0.436-1.2-0.436-1.745 0l-8.945 8.945c-0.218 0.218-0.545 0.218-0.764 0s-0.218-0.545 0-0.764l8.945-8.945c0.873-0.873 2.4-0.873 3.273 0 0.436 0.436 0.655 0.982 0.655 1.636s-0.218 1.2-0.655 1.636l-9.709 9.709c-1.527 1.527-4.145 1.527-5.782 0-1.527-1.527-1.527-4.145 0-5.782l9.709-9.709c2.291-2.291 5.891-2.291 8.182 0s2.291 5.891 0 8.182l-8.945 8.945c0 0.218-0.109 0.218-0.327 0.218z"></path>
</svg>
