<?xml version="1.0" encoding="utf-8"?>
<!-- Generated by IcoMoon.io -->
<!DOCTYPE svg PUBLIC "-//W3C//DTD SVG 1.1//EN" "http://www.w3.org/Graphics/SVG/1.1/DTD/svg11.dtd">
<svg version="1.1" xmlns="http://www.w3.org/2000/svg" xmlns:xlink="http://www.w3.org/1999/xlink" width="24" height="24" viewBox="0 0 24 24">
<path fill="#444444" d="M19.909 5.727c-0.655-0.709-1.364-1.364-2.182-1.855-0.382-0.218-0.818-0.6-1.255-0.709-0.491-0.109-0.873 0.382-0.655 0.818 0.218 0.382 0.818 0.545 1.145 0.764 0.382 0.273 0.764 0.545 1.145 0.818 0.709 0.6 1.309 1.309 1.855 2.127 1.964 3.164 1.909 7.255-0.164 10.364-2.018 3-5.618 4.582-9.164 4.091-3.491-0.491-6.491-3-7.636-6.382-1.2-3.6-0.055-7.582 2.727-10.091 0.382-0.327 0.764-0.6 1.145-0.873 0.218-0.164 0.436-0.273 0.655-0.382 0.164-0.109 0.382-0.164 0.491-0.327 0.273-0.382-0.055-0.927-0.545-0.873-0.436 0.055-0.927 0.436-1.309 0.709-1.582 1.036-2.891 2.455-3.709 4.145-1.691 3.327-1.473 7.364 0.545 10.473 1.909 3 5.345 4.855 8.891 4.855 0.873 0 1.8-0.109 2.673-0.327 3.382-0.873 6.218-3.491 7.309-6.818 1.364-3.655 0.545-7.691-1.964-10.527z"></path>
<path fill="#444444" d="M12 12.382c0.327 0 0.545-0.273 0.545-0.545v-10.636c0-0.709-1.145-0.709-1.145 0v10.582c0.055 0.327 0.273 0.6 0.6 0.6z"></path>
</svg>
