<?xml version="1.0" encoding="utf-8"?>
<!-- Generated by IcoMoon.io -->
<!DOCTYPE svg PUBLIC "-//W3C//DTD SVG 1.1//EN" "http://www.w3.org/Graphics/SVG/1.1/DTD/svg11.dtd">
<svg version="1.1" xmlns="http://www.w3.org/2000/svg" xmlns:xlink="http://www.w3.org/1999/xlink" width="24" height="24" viewBox="0 0 24 24">
<path fill="#444444" d="M19.527 11.727h-2.509v-1.636c0-0.164-0.109-0.273-0.273-0.273s-0.273 0.109-0.273 0.273v1.636h-12c-0.164 0-0.273 0.109-0.273 0.273s0.109 0.273 0.273 0.273h12v1.636c0 0.164 0.109 0.273 0.273 0.273s0.273-0.109 0.273-0.273v-1.636h2.509c0.164 0 0.273-0.109 0.273-0.273s-0.164-0.273-0.273-0.273z"></path>
<path fill="#444444" d="M19.527 17.4h-9.436v-1.636c0-0.164-0.109-0.273-0.273-0.273s-0.273 0.109-0.273 0.273v1.636h-5.073c-0.164 0-0.273 0.109-0.273 0.273s0.109 0.273 0.273 0.273h5.073v1.636c0 0.164 0.109 0.273 0.273 0.273s0.273-0.109 0.273-0.273v-1.636h9.382c0.164 0 0.273-0.109 0.273-0.273s-0.109-0.273-0.218-0.273z"></path>
<path fill="#444444" d="M4.473 6.6h2.509v1.636c0 0.164 0.109 0.273 0.273 0.273s0.273-0.109 0.273-0.273v-1.636h12c0.164 0 0.273-0.109 0.273-0.273s-0.109-0.273-0.273-0.273h-12v-1.636c0-0.164-0.109-0.273-0.273-0.273s-0.273 0.109-0.273 0.273v1.636h-2.509c-0.164 0-0.273 0.109-0.273 0.273s0.164 0.273 0.273 0.273z"></path>
</svg>
