<?xml version="1.0" encoding="utf-8"?>
<!-- Generated by IcoMoon.io -->
<!DOCTYPE svg PUBLIC "-//W3C//DTD SVG 1.1//EN" "http://www.w3.org/Graphics/SVG/1.1/DTD/svg11.dtd">
<svg version="1.1" xmlns="http://www.w3.org/2000/svg" xmlns:xlink="http://www.w3.org/1999/xlink" width="24" height="24" viewBox="0 0 24 24">
<path fill="#444444" d="M13.964 18.491h-11.236c-0.164 0-0.273-0.109-0.273-0.273 0-3.655 2.509-4.8 3.6-5.291 0.164-0.055 0.382-0.164 0.382-0.218 0.327-0.327 0.273-0.545-0.218-1.255-0.436-0.6-0.982-1.364-0.982-2.564 0-1.691 1.145-3.436 3.109-3.436s3.109 1.745 3.109 3.436c0 1.2-0.545 1.964-0.982 2.564-0.491 0.709-0.6 0.873-0.218 1.255 0.055 0.055 0.218 0.109 0.382 0.218 1.091 0.491 3.6 1.582 3.6 5.291 0 0.164-0.164 0.273-0.273 0.273zM3 17.945h10.691c-0.109-3.109-2.236-4.036-3.273-4.473-0.273-0.109-0.436-0.218-0.545-0.327-0.709-0.709-0.273-1.309 0.164-1.909 0.382-0.545 0.873-1.2 0.873-2.236 0-1.418-0.982-2.891-2.564-2.891-1.636 0-2.564 1.473-2.564 2.891 0 1.036 0.491 1.691 0.873 2.236 0.436 0.6 0.873 1.255 0.164 1.909-0.109 0.109-0.273 0.164-0.545 0.327-1.036 0.436-3.164 1.364-3.273 4.473z"></path>
<path fill="#444444" d="M21.273 13.964h-4.527c-0.164 0-0.273-0.109-0.273-0.273s0.109-0.273 0.273-0.273h4.527c0.164 0 0.273 0.109 0.273 0.273s-0.109 0.273-0.273 0.273z"></path>
<path fill="#444444" d="M21.273 7.855h-6.873c-0.164 0-0.273-0.109-0.273-0.273s0.109-0.273 0.273-0.273h6.873c0.164 0 0.273 0.109 0.273 0.273s-0.109 0.273-0.273 0.273z"></path>
<path fill="#444444" d="M21.273 10.855h-6.873c-0.164 0-0.273-0.109-0.273-0.273s0.109-0.273 0.273-0.273h6.873c0.164 0 0.273 0.109 0.273 0.273s-0.109 0.273-0.273 0.273z"></path>
</svg>
