<?xml version="1.0" encoding="utf-8"?>
<!-- Generated by IcoMoon.io -->
<!DOCTYPE svg PUBLIC "-//W3C//DTD SVG 1.1//EN" "http://www.w3.org/Graphics/SVG/1.1/DTD/svg11.dtd">
<svg version="1.1" xmlns="http://www.w3.org/2000/svg" xmlns:xlink="http://www.w3.org/1999/xlink" width="24" height="24" viewBox="0 0 24 24">
<path fill="#444444" d="M8.182 5.291l3.273-3.273v13.8c0 0.327 0.218 0.545 0.545 0.545s0.545-0.218 0.545-0.545v-13.8l3.273 3.273c0.109 0.109 0.273 0.164 0.382 0.164s0.273-0.055 0.382-0.164c0.218-0.218 0.218-0.545 0-0.764l-4.2-4.2c-0.055-0.055-0.109-0.109-0.164-0.109-0.055-0.055-0.164-0.055-0.218-0.055s-0.164 0-0.218 0.055c-0.055 0.055-0.109 0.055-0.164 0.109l-4.2 4.2c-0.218 0.218-0.218 0.545 0 0.764s0.545 0.218 0.764 0z"></path>
<path fill="#444444" d="M18.491 24h-12.982c-0.927 0-1.636-0.709-1.636-1.636v-11.945c0-0.927 0.709-1.636 1.636-1.636h3.218c0.327 0 0.545 0.218 0.545 0.545s-0.218 0.545-0.545 0.545h-3.218c-0.327 0-0.545 0.218-0.545 0.545v11.945c0 0.327 0.218 0.545 0.545 0.545h12.927c0.327 0 0.545-0.218 0.545-0.545v-11.945c0-0.327-0.218-0.545-0.545-0.545h-3.164c-0.327 0-0.545-0.218-0.545-0.545s0.218-0.545 0.545-0.545h3.218c0.927 0 1.636 0.709 1.636 1.636v11.945c0 0.927-0.764 1.636-1.636 1.636z"></path>
</svg>
