<?xml version="1.0" encoding="utf-8"?>
<!-- Generated by IcoMoon.io -->
<!DOCTYPE svg PUBLIC "-//W3C//DTD SVG 1.1//EN" "http://www.w3.org/Graphics/SVG/1.1/DTD/svg11.dtd">
<svg version="1.1" xmlns="http://www.w3.org/2000/svg" xmlns:xlink="http://www.w3.org/1999/xlink" width="24" height="24" viewBox="0 0 24 24">
<path fill="#444444" d="M15.436 6.164v-2.182c0-1.964-1.582-3.491-3.491-3.491s-3.491 1.582-3.491 3.491v2.182h-0.655v6.545h8.236v-6.545h-0.6zM14.727 6.164h-5.509v-2.182c0-1.527 1.255-2.782 2.782-2.782s2.727 1.255 2.727 2.782v2.182z"></path>
<path fill="#444444" d="M9.545 18.218l2.073-2.073v5.345c0 0.218 0.164 0.382 0.382 0.382s0.382-0.164 0.382-0.382v-5.345l2.073 2.073c0.055 0.055 0.164 0.109 0.273 0.109s0.164-0.055 0.273-0.109c0.164-0.164 0.164-0.382 0-0.491l-2.673-2.673c-0.055-0.055-0.055-0.055-0.109-0.055-0.109-0.055-0.164-0.055-0.273 0-0.055 0-0.109 0.055-0.109 0.055l-2.673 2.673c-0.164 0.164-0.164 0.382 0 0.491 0 0.109 0.273 0.109 0.382 0z"></path>
<path fill="#444444" d="M17.782 22.909h-11.564c-0.218 0-0.382 0.164-0.382 0.382s0.164 0.382 0.382 0.382h11.564c0.218 0 0.382-0.164 0.382-0.382s-0.164-0.382-0.382-0.382z"></path>
</svg>
