<?xml version="1.0" encoding="utf-8"?>
<!-- Generated by IcoMoon.io -->
<!DOCTYPE svg PUBLIC "-//W3C//DTD SVG 1.1//EN" "http://www.w3.org/Graphics/SVG/1.1/DTD/svg11.dtd">
<svg version="1.1" xmlns="http://www.w3.org/2000/svg" xmlns:xlink="http://www.w3.org/1999/xlink" width="24" height="24" viewBox="0 0 24 24">
<path fill="#444444" d="M21.764 4.418l-13.964 1.745c-0.273 0.055-0.436 0.436-0.218 0.655l4.145 3.491 0.055 0.327c-0.6 0.545-1.364 0.764-1.8 0.873-1.036-0.982-2.564-0.927-3.545 0l-1.091 1.036-0.218-0.218-3.327 3.164 3.927 4.145 3.327-3.164-0.218-0.218 1.145-1.036c0.818-0.818 0.982-2.073 0.491-3 0.382-0.109 0.927-0.327 1.418-0.709l0.655 4.2c0 0.164 0.164 0.273 0.273 0.273 0.164 0.055 0.273 0 0.382-0.164l8.945-10.909c0.055 0 0.055-0.055 0.055-0.164 0-0.164-0.218-0.382-0.436-0.327zM9.382 14.618l-1.091 1.036-2.455-2.618 1.091-1.036c0.709-0.655 1.8-0.655 2.564 0.055 0.655 0.709 0.655 1.909-0.109 2.564zM8.727 6.818l11.291-1.473-7.855 4.364-3.436-2.891zM13.091 14.836l-0.655-4.473 7.855-4.364-7.2 8.836z"></path>
</svg>
