<?xml version="1.0" encoding="utf-8"?>
<!-- Generated by IcoMoon.io -->
<!DOCTYPE svg PUBLIC "-//W3C//DTD SVG 1.1//EN" "http://www.w3.org/Graphics/SVG/1.1/DTD/svg11.dtd">
<svg version="1.1" xmlns="http://www.w3.org/2000/svg" xmlns:xlink="http://www.w3.org/1999/xlink" width="24" height="24" viewBox="0 0 24 24">
<path fill="#444444" d="M12 17.673c0 0 0 0 0 0-0.218 0-0.218-0.109-0.327-0.109 0 0 0 0 0 0l-5.236-5.018c-0.218-0.218-0.218-0.545 0-0.764s0.545-0.218 0.764 0l4.255 4.145v-6.764c0-3.6 2.836-6.436 6.436-6.436h3.055c0.327 0 0.545 0.218 0.545 0.545s-0.218 0.545-0.545 0.545h-3.055c-2.945 0-5.345 2.4-5.345 5.345v6.655l4.255-4.145c0.218-0.218 0.545-0.218 0.764 0 0.109 0.109 0.109 0.218 0.109 0.327s-0.109 0.327-0.218 0.436l-5.127 5.018c0 0 0 0 0 0 0 0.109-0.218 0.218-0.327 0.218 0 0 0 0 0 0v0c0 0 0 0 0 0z"></path>
<path fill="#444444" d="M19.527 21.273h-15.055c-1.091 0-2.073-0.873-2.073-2.073v-6.982c0-0.327 0.218-0.545 0.545-0.545s0.545 0.218 0.545 0.545v6.982c0 0.545 0.436 0.982 0.982 0.982h14.945c0.545 0 0.982-0.436 0.982-0.982v-6.982c0-0.327 0.218-0.545 0.545-0.545s0.545 0.218 0.545 0.545v6.982c0 1.2-0.873 2.073-1.964 2.073z"></path>
</svg>
