<?xml version="1.0" encoding="utf-8"?>
<!-- Generated by IcoMoon.io -->
<!DOCTYPE svg PUBLIC "-//W3C//DTD SVG 1.1//EN" "http://www.w3.org/Graphics/SVG/1.1/DTD/svg11.dtd">
<svg version="1.1" xmlns="http://www.w3.org/2000/svg" xmlns:xlink="http://www.w3.org/1999/xlink" width="24" height="24" viewBox="0 0 24 24">
<path fill="#444444" d="M20.4 14.018c-0.273-0.109-0.6 0.055-0.655 0.382-1.036 3.327-4.036 5.618-7.473 5.727-3.055 0.055-5.891-1.582-7.364-4.2l2.836 0.818c0.273 0.109 0.6-0.055 0.655-0.382 0.109-0.273-0.055-0.6-0.382-0.655l-3.982-1.145c0 0-0.055 0-0.055 0-0.055 0-0.055 0-0.109 0s-0.055 0-0.109 0c0 0-0.055 0-0.055 0s0 0-0.055 0-0.055 0.055-0.109 0.055c0 0-0.055 0.055-0.055 0.055s-0.055 0.055-0.055 0.109c0 0.055-0.055 0.055-0.055 0.109 0 0 0 0 0 0.055l-1.145 3.982c-0.109 0.273 0.055 0.6 0.382 0.655 0.055 0 0.109 0 0.164 0 0.218 0 0.436-0.164 0.545-0.382l0.764-2.618c1.636 2.836 4.636 4.582 7.964 4.582 0.109 0 0.218 0 0.327 0 3.927-0.109 7.309-2.727 8.455-6.491 0.055-0.273-0.109-0.6-0.436-0.655z"></path>
<path fill="#444444" d="M21.382 4.418c-0.273-0.109-0.6 0.055-0.655 0.382l-0.764 2.618c-1.691-2.891-4.8-4.691-8.291-4.582-3.927 0.109-7.309 2.727-8.455 6.491-0.109 0.273 0.055 0.6 0.382 0.655 0.055 0 0.109 0 0.164 0 0.218 0 0.436-0.164 0.545-0.382 1.036-3.327 4.036-5.618 7.473-5.727 3-0.109 5.836 1.582 7.309 4.2l-2.836-0.818c-0.273-0.109-0.6 0.055-0.655 0.382-0.109 0.273 0.055 0.6 0.382 0.655l3.982 1.145c0.055 0 0.055 0 0.109 0 0 0 0 0 0.055 0 0 0 0 0 0 0 0.055 0 0.109 0 0.164-0.055 0 0 0 0 0 0s0 0 0 0 0.055 0 0.055 0c0 0 0.055-0.055 0.055-0.055 0.055 0 0.055-0.055 0.055-0.055s0.055-0.055 0.055-0.055c0-0.055 0.055-0.055 0.055-0.109 0 0 0 0 0-0.055l1.145-3.982c0.164-0.273 0-0.6-0.327-0.655z"></path>
</svg>
