<?xml version="1.0" encoding="utf-8"?>
<!-- Generated by IcoMoon.io -->
<!DOCTYPE svg PUBLIC "-//W3C//DTD SVG 1.1//EN" "http://www.w3.org/Graphics/SVG/1.1/DTD/svg11.dtd">
<svg version="1.1" xmlns="http://www.w3.org/2000/svg" xmlns:xlink="http://www.w3.org/1999/xlink" width="24" height="24" viewBox="0 0 24 24">
<path fill="#444444" d="M21.327 12.982c-0.764-2.782-3.327-4.745-6.218-4.745h-10.691l4.309-4.309c0.491-0.491-0.273-1.309-0.818-0.818l-5.291 5.291c-0.218 0.218-0.218 0.6 0 0.818l5.291 5.291c0.491 0.491 1.309-0.273 0.818-0.818l-4.309-4.309h10.691c2.564 0 4.8 1.909 5.236 4.473 0.382 2.564-1.145 5.073-3.6 5.836-0.273 0.109-0.6 0.164-0.873 0.218-0.327 0.055-0.764-0.055-0.982 0.109-0.273 0.164-0.382 0.491-0.218 0.764 0.218 0.327 0.6 0.273 0.927 0.273 1.255-0.109 2.455-0.545 3.491-1.309 1.964-1.582 2.891-4.309 2.236-6.764z"></path>
</svg>
