<?xml version="1.0" encoding="utf-8"?>
<!-- Generated by IcoMoon.io -->
<!DOCTYPE svg PUBLIC "-//W3C//DTD SVG 1.1//EN" "http://www.w3.org/Graphics/SVG/1.1/DTD/svg11.dtd">
<svg version="1.1" xmlns="http://www.w3.org/2000/svg" xmlns:xlink="http://www.w3.org/1999/xlink" width="24" height="24" viewBox="0 0 24 24">
<path fill="#444444" d="M21.109 7.418l-4.527-4.582c-0.109-0.055-0.273-0.109-0.436-0.109h-12.873c-0.273 0-0.545 0.273-0.545 0.545v17.455c0 0.327 0.273 0.545 0.545 0.545h17.455c0.327 0 0.545-0.273 0.545-0.545v-12.873c0-0.164-0.055-0.327-0.164-0.436zM20.127 20.127h-16.255v-16.255h12.055l4.2 4.2v12.055z"></path>
<path fill="#444444" d="M15.164 5.236h-8.836c-0.327 0-0.545 0.273-0.545 0.545v4.527c0 0.327 0.273 0.545 0.545 0.545h8.836c0.327 0 0.545-0.273 0.545-0.545v-4.527c0-0.327-0.273-0.545-0.545-0.545zM6.873 6.327h5.182v3.382h-5.182v-3.382zM14.564 9.764h-1.418v-3.382h1.418v3.382z"></path>
</svg>
