<?xml version="1.0" encoding="utf-8"?>
<!-- Generated by IcoMoon.io -->
<!DOCTYPE svg PUBLIC "-//W3C//DTD SVG 1.1//EN" "http://www.w3.org/Graphics/SVG/1.1/DTD/svg11.dtd">
<svg version="1.1" xmlns="http://www.w3.org/2000/svg" xmlns:xlink="http://www.w3.org/1999/xlink" width="24" height="24" viewBox="0 0 24 24">
<path fill="#444444" d="M19.145 4.855c-2.018-2.018-5.291-2.564-7.8-1.2-2.345 1.2-3.764 3.764-3.545 6.382 0.109 1.418 0.655 2.782 1.582 3.873l-6.327 6.218c-0.491 0.491 0.273 1.309 0.818 0.818l6.273-6.273c2.073 1.745 5.127 2.073 7.527 0.764s3.764-3.982 3.436-6.655c-0.218-1.473-0.873-2.891-1.964-3.927-1.255-1.255 1.255 1.255 0 0zM18.382 13.527c-1.691 1.691-4.364 2.127-6.491 1.036-1.964-0.982-3.109-3.109-3-5.291 0.164-2.236 1.636-4.2 3.764-4.909 2.236-0.818 4.8 0 6.273 1.909 1.582 2.182 1.364 5.291-0.545 7.255-1.091 1.036 1.036-1.091 0 0z"></path>
</svg>
