<?xml version="1.0" encoding="utf-8"?>
<!-- Generated by IcoMoon.io -->
<!DOCTYPE svg PUBLIC "-//W3C//DTD SVG 1.1//EN" "http://www.w3.org/Graphics/SVG/1.1/DTD/svg11.dtd">
<svg version="1.1" xmlns="http://www.w3.org/2000/svg" xmlns:xlink="http://www.w3.org/1999/xlink" width="24" height="24" viewBox="0 0 24 24">
<path fill="#444444" d="M17.836 21.6c-0.109 0-0.218-0.055-0.327-0.109l-5.509-4.036-5.509 4.036c-0.436 0.327-1.036-0.109-0.873-0.655l2.127-6.491-5.564-4.036c-0.436-0.327-0.218-1.036 0.327-1.036h6.818l2.127-6.436c0.164-0.491 0.927-0.491 1.091 0l2.127 6.491h6.818c0.545 0 0.764 0.709 0.327 1.036l-5.509 4.036 2.127 6.491c0.055 0.327-0.218 0.709-0.6 0.709zM12 16.2c0.109 0 0.218 0.055 0.327 0.109l4.473 3.218-1.691-5.236c-0.055-0.218 0-0.491 0.218-0.655l4.473-3.218h-5.564c-0.218 0-0.436-0.164-0.545-0.382l-1.691-5.236-1.691 5.236c-0.055 0.218-0.273 0.382-0.545 0.382h-5.509l4.473 3.218c0.218 0.164 0.273 0.382 0.218 0.655l-1.691 5.236 4.473-3.218c0.055-0.055 0.164-0.109 0.273-0.109z"></path>
</svg>
