<?xml version="1.0" encoding="utf-8"?>
<!-- Generated by IcoMoon.io -->
<!DOCTYPE svg PUBLIC "-//W3C//DTD SVG 1.1//EN" "http://www.w3.org/Graphics/SVG/1.1/DTD/svg11.dtd">
<svg version="1.1" xmlns="http://www.w3.org/2000/svg" xmlns:xlink="http://www.w3.org/1999/xlink" width="24" height="24" viewBox="0 0 24 24">
<path fill="#444444" d="M9.218 23.182c-0.164 0-0.273-0.055-0.382-0.164l-7.855-7.855c-0.218-0.218-0.218-0.6 0-0.818l13.418-13.364c0.109-0.109 0.273-0.164 0.382-0.164h7.855c0.327 0 0.545 0.273 0.545 0.545v7.8c0 0.164 0 0.327-0.164 0.491l-13.418 13.364c-0.109 0.109-0.218 0.164-0.382 0.164zM2.127 14.782l7.091 7.091 12.818-12.818v-7.091h-7.036l-12.873 12.818zM17.073 9.818c-1.2 0-2.291-0.764-2.673-1.855-0.436-1.145-0.055-2.4 0.818-3.164 0.927-0.873 2.291-0.982 3.327-0.327 1.036 0.6 1.582 1.855 1.364 3-0.273 1.309-1.473 2.345-2.836 2.345zM17.073 5.182c-0.927 0-1.745 0.818-1.745 1.745s0.818 1.745 1.745 1.745c0.927 0 1.745-0.818 1.745-1.745 0-0.982-0.764-1.745-1.745-1.745z"></path>
</svg>
