<?xml version="1.0" encoding="utf-8"?>
<!-- Generated by IcoMoon.io -->
<!DOCTYPE svg PUBLIC "-//W3C//DTD SVG 1.1//EN" "http://www.w3.org/Graphics/SVG/1.1/DTD/svg11.dtd">
<svg version="1.1" xmlns="http://www.w3.org/2000/svg" xmlns:xlink="http://www.w3.org/1999/xlink" width="24" height="24" viewBox="0 0 24 24">
<path fill="#444444" d="M20.345 5.618h-4.364v-3.327c0-0.327-0.273-0.545-0.545-0.545h-6.709c-0.327 0-0.545 0.273-0.545 0.545v3.327h-4.527c-0.709 0-0.709 1.145 0 1.145h1.418v13.309c0 1.255 0.927 2.236 2.236 2.236h9.545c1.255 0 2.236-0.927 2.236-2.236v-13.364h1.309c0.709 0 0.709-1.091-0.055-1.091zM9.273 2.836h5.564v2.782h-5.564v-2.782zM17.891 20.073c0 0.655-0.436 1.091-1.091 1.091h-9.491c-0.655 0-1.091-0.436-1.091-1.091v-13.364h11.727v13.364z"></path>
</svg>
